<svg xmlns="http://www.w3.org/2000/svg" viewBox="0 0 647.88 123.7"><defs><style>.cls-1{fill:#3c3c3b;}.cls-2{fill:#d4af37;}</style></defs><g id="Ebene_2" data-name="Ebene 2"><g id="Ebene_1-2" data-name="Ebene 1"><path class="cls-1" d="M197.25,58.17V55.88h.57c.3,0,.71,0,1.21-.08a3.73,3.73,0,0,0,.87-.16.85.85,0,0,0,.47-.38,1.46,1.46,0,0,0,.16-.73V37.88a2.07,2.07,0,0,0-.14-.77,1,1,0,0,0-.49-.41,4.67,4.67,0,0,0-1-.32,9.22,9.22,0,0,0-1-.13l-.53,0V34h11.05a14.92,14.92,0,0,1,4.43.67,13.31,13.31,0,0,1,3.81,1.81,10.64,10.64,0,0,1,3.5,4,12.64,12.64,0,0,1,1.26,5.77,11.33,11.33,0,0,1-1.22,5.38,11.13,11.13,0,0,1-3.15,3.73,13.9,13.9,0,0,1-4.36,2.16,17.78,17.78,0,0,1-5,.7Zm8-4.52a1.71,1.71,0,0,0,.63,1.57,4.77,4.77,0,0,0,2.46.48,8.5,8.5,0,0,0,3.52-.68,6.26,6.26,0,0,0,2.39-1.86,8.49,8.49,0,0,0,1.43-3,15.44,15.44,0,0,0,.46-4,12.26,12.26,0,0,0-.61-4,8.85,8.85,0,0,0-1.77-3.08,7.65,7.65,0,0,0-2.67-2,8.69,8.69,0,0,0-3.55-.71c-.46,0-1,0-1.55,0l-.74,0Z"/><path class="cls-1" d="M220.87,46.2a10.42,10.42,0,0,1-4.14,8.66,13.27,13.27,0,0,1-4.18,2.06,16.66,16.66,0,0,1-4.79.68h-9.94V56.45a12,12,0,0,0,1.28-.09,4.65,4.65,0,0,0,1-.2,1.43,1.43,0,0,0,.73-.63,2.08,2.08,0,0,0,.23-1V37.88a2.48,2.48,0,0,0-.2-1,1.37,1.37,0,0,0-.76-.69,4.22,4.22,0,0,0-1.14-.36,8.37,8.37,0,0,0-1-.15V34.53h10.48a14.43,14.43,0,0,1,4.26.64,13.19,13.19,0,0,1,3.66,1.73,10.12,10.12,0,0,1,3.31,3.79A11.94,11.94,0,0,1,220.87,46.2Zm-4.14,0a13.24,13.24,0,0,0-.64-4.21,9.62,9.62,0,0,0-1.88-3.27,8.31,8.31,0,0,0-2.87-2.1,9.08,9.08,0,0,0-3.78-.76l-1.56,0c-.58,0-1,0-1.3,0V53.65a2.23,2.23,0,0,0,.9,2.05,5.24,5.24,0,0,0,2.76.57,8.93,8.93,0,0,0,3.75-.73,6.78,6.78,0,0,0,2.61-2,9.11,9.11,0,0,0,1.53-3.16A16.15,16.15,0,0,0,216.73,46.2Z"/><path class="cls-1" d="M246,58.72a12.3,12.3,0,0,1-4.85-.94,11.47,11.47,0,0,1-3.84-2.65,12,12,0,0,1-2.51-4,14,14,0,0,1-.91-5,13.51,13.51,0,0,1,1-5.23,12.18,12.18,0,0,1,2.64-4,11.58,11.58,0,0,1,3.89-2.57,12.67,12.67,0,0,1,9.33,0,11.37,11.37,0,0,1,3.84,2.55,11.84,11.84,0,0,1,2.61,4,14.11,14.11,0,0,1,.94,5.2,13.85,13.85,0,0,1-1,5.21,11.79,11.79,0,0,1-2.67,4,11.52,11.52,0,0,1-3.83,2.53A12.27,12.27,0,0,1,246,58.72ZM246,36a5.84,5.84,0,0,0-3.16.81,6.51,6.51,0,0,0-2.13,2.2,10.74,10.74,0,0,0-1.19,3.18,19.77,19.77,0,0,0,0,8,10,10,0,0,0,1.31,3.17,6.19,6.19,0,0,0,2.11,2.06,6.13,6.13,0,0,0,8.19-2.1,10.13,10.13,0,0,0,1.3-3.18,19.45,19.45,0,0,0-.05-8.27,10,10,0,0,0-1.33-3.21,6.16,6.16,0,0,0-2.13-2A6,6,0,0,0,246,36Z"/><path class="cls-1" d="M254.13,37.26a11.11,11.11,0,0,1,2.48,3.84,13.39,13.39,0,0,1,.9,5,13.08,13.08,0,0,1-.91,5,11.07,11.07,0,0,1-2.54,3.82,10.91,10.91,0,0,1-3.65,2.41,11.78,11.78,0,0,1-4.44.85,11.51,11.51,0,0,1-4.62-.91,10.63,10.63,0,0,1-3.65-2.51,11.37,11.37,0,0,1-2.39-3.83,13.26,13.26,0,0,1-.87-4.82,13,13,0,0,1,.91-5,11.62,11.62,0,0,1,2.52-3.81,10.85,10.85,0,0,1,3.7-2.44,11.94,11.94,0,0,1,8.9,0A10.78,10.78,0,0,1,254.13,37.26Zm-2.52,16.36A10.41,10.41,0,0,0,253,50.27a19.85,19.85,0,0,0,0-8.54,10.52,10.52,0,0,0-1.41-3.38,6.77,6.77,0,0,0-2.33-2.16,6.64,6.64,0,0,0-3.22-.77,6.33,6.33,0,0,0-3.45.9,7,7,0,0,0-2.31,2.39A10.81,10.81,0,0,0,239,42.06a20,20,0,0,0,0,8.26,10.71,10.71,0,0,0,1.39,3.35,6.74,6.74,0,0,0,2.3,2.24,6.67,6.67,0,0,0,9-2.29Z"/><path class="cls-1" d="M289.15,58.17V55.9l.55,0c.37,0,.85-.05,1.43-.11a3.25,3.25,0,0,0,1-.21,1.59,1.59,0,0,0,.55-.5,1.36,1.36,0,0,0,.17-.71V39.79l-7.5,18h-1.61l-7.06-18.18V50.94a13.06,13.06,0,0,0,.24,2.9,2.35,2.35,0,0,0,.62,1.2,3.35,3.35,0,0,0,1.32.54,8.14,8.14,0,0,0,1.4.3l.54,0v2.26H270V55.93l.52,0a10.54,10.54,0,0,0,1.53-.23,2.51,2.51,0,0,0,1.06-.43,1.83,1.83,0,0,0,.61-1.08,15.83,15.83,0,0,0,.2-3V39.31a4.2,4.2,0,0,0-.21-1.47,2,2,0,0,0-.57-.83,2.77,2.77,0,0,0-1.07-.54,6.19,6.19,0,0,0-1.38-.22l-.54,0V34h9.13l6.5,16.37,5.34-13.18a15.78,15.78,0,0,0,.53-1.6,5.86,5.86,0,0,0,.22-1l0-.54h8.93v2.27l-.55,0a7.59,7.59,0,0,0-1.13.14,6.25,6.25,0,0,0-1,.22.66.66,0,0,0-.44.34,1.87,1.87,0,0,0-.15.76V54.35a1.55,1.55,0,0,0,.14.7,1.19,1.19,0,0,0,.53.44,3.52,3.52,0,0,0,.92.25,10.61,10.61,0,0,0,1.16.14l.55,0v2.27Z"/><path class="cls-1" d="M300.32,57.6H289.71V56.45c.39,0,.88-.05,1.48-.11a4,4,0,0,0,1.25-.28,2.22,2.22,0,0,0,.77-.71,1.9,1.9,0,0,0,.24-1V37.57h-.25L285,57.23h-.84l-7.8-20.07h-.22V50.94a13.64,13.64,0,0,0,.26,3,2.81,2.81,0,0,0,.81,1.49,3.78,3.78,0,0,0,1.54.65,9,9,0,0,0,1.52.33V57.6h-9.69V56.45a14.3,14.3,0,0,0,1.59-.24,3.2,3.2,0,0,0,1.3-.54,2.39,2.39,0,0,0,.81-1.4,15.39,15.39,0,0,0,.22-3.15V39.31a4.72,4.72,0,0,0-.25-1.68,2.68,2.68,0,0,0-.73-1.05,3.27,3.27,0,0,0-1.29-.65,6.11,6.11,0,0,0-1.5-.25V34.53h8.18l6.88,17.32,5.86-14.49a12.56,12.56,0,0,0,.55-1.67,6.8,6.8,0,0,0,.25-1.16h7.83v1.15a8.38,8.38,0,0,0-1.21.15,8.49,8.49,0,0,0-1.08.24,1.21,1.21,0,0,0-.77.65,2.38,2.38,0,0,0-.21,1V54.35a2,2,0,0,0,.21,1A1.64,1.64,0,0,0,298,56a4.38,4.38,0,0,0,1.09.31,9.14,9.14,0,0,0,1.23.15Z"/><path class="cls-1" d="M313.57,58.17V55.92l1.85-.13a4,4,0,0,0,1.06-.17,1,1,0,0,0,.54-.37,1.21,1.21,0,0,0,.16-.69V37.84a1.71,1.71,0,0,0-.13-.7s-.11-.19-.57-.36a10.57,10.57,0,0,0-2.37-.53l-.54,0V34h11.94v2.28H325a10.53,10.53,0,0,0-1.18.11,8.63,8.63,0,0,0-1.19.26.81.81,0,0,0-.52.34,1.53,1.53,0,0,0-.16.72v16.7a1.24,1.24,0,0,0,.17.66,1.12,1.12,0,0,0,.56.43,7.67,7.67,0,0,0,1.06.25,7.58,7.58,0,0,0,1.26.16l.55,0v2.27Z"/><path class="cls-1" d="M325,57.6H314.14V56.45l1.32-.1a5.43,5.43,0,0,0,1.22-.19,1.7,1.7,0,0,0,.81-.58,1.77,1.77,0,0,0,.25-1V37.85a2.28,2.28,0,0,0-.18-1,1.54,1.54,0,0,0-.88-.64,9,9,0,0,0-1.28-.36,7.79,7.79,0,0,0-1.26-.21V34.53H325v1.15a11,11,0,0,0-1.25.12,8.47,8.47,0,0,0-1.27.27,1.33,1.33,0,0,0-.87.64,2.19,2.19,0,0,0-.21,1v16.7a1.84,1.84,0,0,0,.24.95,1.6,1.6,0,0,0,.84.66,7,7,0,0,0,1.16.29,8.8,8.8,0,0,0,1.36.17Z"/><path class="cls-1" d="M357.86,58.4l-13.7-17.78V50.86a13.43,13.43,0,0,0,.24,2.93A2.31,2.31,0,0,0,345,55a3.16,3.16,0,0,0,1.38.55,8.37,8.37,0,0,0,1.49.31l.54,0v2.26h-11V55.92l.52,0a7.84,7.84,0,0,0,1.44-.3,4,4,0,0,0,1.13-.39,1.84,1.84,0,0,0,.63-1.09,16.16,16.16,0,0,0,.2-3.07V39.67a3.74,3.74,0,0,0-.24-1.31,2.07,2.07,0,0,0-.57-.92,4.52,4.52,0,0,0-1.46-.81,5.43,5.43,0,0,0-1.52-.38l-.54,0V34h7.71L357.4,50.45V41.14a13.51,13.51,0,0,0-.25-3,1.91,1.91,0,0,0-.56-1.12,5.23,5.23,0,0,0-1.37-.52,8.8,8.8,0,0,0-1.51-.3l-.54,0V34h10.89v2.27l-.55,0a6.45,6.45,0,0,0-1.33.24,4.65,4.65,0,0,0-1.25.44,1.88,1.88,0,0,0-.55,1.18,15.58,15.58,0,0,0-.21,2.83V58.4Z"/><path class="cls-1" d="M363.5,35.68a7.92,7.92,0,0,0-1.46.26,5.36,5.36,0,0,0-1.4.5,2.3,2.3,0,0,0-.82,1.57,16.8,16.8,0,0,0-.21,2.93V57.83h-1.48L343.59,39V50.86a14.07,14.07,0,0,0,.26,3.07,2.91,2.91,0,0,0,.8,1.53,4,4,0,0,0,1.61.66,9.81,9.81,0,0,0,1.61.33V57.6H338V56.45a9.52,9.52,0,0,0,1.54-.32,4.32,4.32,0,0,0,1.36-.51,2.4,2.4,0,0,0,.81-1.39A16.41,16.41,0,0,0,342,51V39.67a4.4,4.4,0,0,0-.27-1.5A2.78,2.78,0,0,0,341,37a5,5,0,0,0-1.65-.92,5.81,5.81,0,0,0-1.68-.42V34.53h6.86L358,52.12v-11a13.5,13.5,0,0,0-.27-3.09,2.49,2.49,0,0,0-.78-1.44,5.53,5.53,0,0,0-1.55-.6,8.39,8.39,0,0,0-1.63-.33V34.53h9.76Z"/><path class="cls-1" d="M375.46,58.17V55.92l1.85-.13a4,4,0,0,0,1.06-.17,1.17,1.17,0,0,0,.55-.36,1.37,1.37,0,0,0,.15-.7V37.84a1.71,1.71,0,0,0-.13-.7s-.12-.19-.57-.36a8.2,8.2,0,0,0-1.2-.34,8.56,8.56,0,0,0-1.17-.19l-.54,0V34h12v2.28h-.56a10.53,10.53,0,0,0-1.18.11,9.92,9.92,0,0,0-1.18.25A.85.85,0,0,0,384,37a1.66,1.66,0,0,0-.16.72v16.7a1.31,1.31,0,0,0,.17.67,1.15,1.15,0,0,0,.57.42,7.06,7.06,0,0,0,1,.25,7.56,7.56,0,0,0,1.27.16l.55,0v2.27Z"/><path class="cls-1" d="M386.84,57.6H376V56.45l1.32-.1a5.33,5.33,0,0,0,1.22-.19,1.7,1.7,0,0,0,.81-.58,1.77,1.77,0,0,0,.25-1V37.85a2.28,2.28,0,0,0-.18-1,1.54,1.54,0,0,0-.88-.64,9,9,0,0,0-1.28-.36,7.79,7.79,0,0,0-1.26-.21V34.53h10.81v1.15a11,11,0,0,0-1.25.12,8.47,8.47,0,0,0-1.27.27,1.29,1.29,0,0,0-.86.64,2.07,2.07,0,0,0-.22,1v16.7a1.84,1.84,0,0,0,.24.95,1.64,1.64,0,0,0,.84.66,7.31,7.31,0,0,0,1.16.29,9,9,0,0,0,1.36.17Z"/><path class="cls-1" d="M411.32,58.72a11.29,11.29,0,0,1-4.33-.85,11.1,11.1,0,0,1-3.67-2.47,12,12,0,0,1-2.53-3.92,13.75,13.75,0,0,1-.93-5.19,14.52,14.52,0,0,1,.91-5.22A12.25,12.25,0,0,1,403.33,37a11.13,11.13,0,0,1,3.82-2.62,12.73,12.73,0,0,1,8.07-.48,13,13,0,0,1,2.38,1l.57-.92h2.23l.17,9.36h-2.42l-.1-.44a17.58,17.58,0,0,0-.79-2.53,9,9,0,0,0-1.19-2.25,5.58,5.58,0,0,0-1.75-1.58,4.52,4.52,0,0,0-2.27-.55,6.32,6.32,0,0,0-2.8.64,6.51,6.51,0,0,0-2.24,1.9,9.65,9.65,0,0,0-1.44,3.16,16.67,16.67,0,0,0-.54,4.4,13,13,0,0,0,.56,3.89A9.79,9.79,0,0,0,407.16,53a7.47,7.47,0,0,0,2.38,2,6.49,6.49,0,0,0,3,.71,6.88,6.88,0,0,0,2.32-.38,6.3,6.3,0,0,0,1.83-1,8.35,8.35,0,0,0,1.38-1.52,8,8,0,0,0,1-1.85l.21-.57,2.32,1.07-.21.5a10.7,10.7,0,0,1-4.08,5.17A11.32,11.32,0,0,1,411.32,58.72Z"/><path class="cls-1" d="M411.32,58.16a10.73,10.73,0,0,1-7.6-3.16,11.52,11.52,0,0,1-2.4-3.73,13.08,13.08,0,0,1-.9-5,13.85,13.85,0,0,1,.88-5,11.8,11.8,0,0,1,2.44-3.88,10.69,10.69,0,0,1,3.63-2.49,11.58,11.58,0,0,1,4.48-.88,11.45,11.45,0,0,1,3.21.42,12.49,12.49,0,0,1,2.73,1.19l.7-1.1h1.35l.15,8.23h-1.38a19.75,19.75,0,0,0-.82-2.61,10.09,10.09,0,0,0-1.26-2.39A6.1,6.1,0,0,0,414.6,36a5.07,5.07,0,0,0-2.55-.62,6.86,6.86,0,0,0-3.05.69,7,7,0,0,0-2.44,2.07A10.1,10.1,0,0,0,405,41.52a17.34,17.34,0,0,0-.56,4.55,13.41,13.41,0,0,0,.59,4.06,10.34,10.34,0,0,0,1.66,3.24,7.9,7.9,0,0,0,2.56,2.17,7,7,0,0,0,3.31.78,7.47,7.47,0,0,0,2.51-.41,7.12,7.12,0,0,0,2-1.1,8.83,8.83,0,0,0,1.48-1.63,8.93,8.93,0,0,0,1.05-2l1.27.58A10.19,10.19,0,0,1,417,56.69,10.75,10.75,0,0,1,411.32,58.16Z"/><path class="cls-1" d="M452.56,58.17V55.93l.52,0c.27,0,.65-.06,1.15-.13a4.09,4.09,0,0,0,1-.21,1,1,0,0,0,.48-.37,1.39,1.39,0,0,0,.15-.71V37.88a1.65,1.65,0,0,0-.15-.74,1,1,0,0,0-.48-.41,5.08,5.08,0,0,0-1-.33,7.07,7.07,0,0,0-1-.15l-.53,0V34h11.65a12.58,12.58,0,0,1,2.57.26,8,8,0,0,1,2.41.92,5.31,5.31,0,0,1,1.83,1.73,4.76,4.76,0,0,1,.74,2.68,5.55,5.55,0,0,1-.51,2.42,5.29,5.29,0,0,1-1.44,1.82A8.09,8.09,0,0,1,468,45l-.36.15.42.13a8.56,8.56,0,0,1,2.44,1.14,6.44,6.44,0,0,1,1.9,2,5.53,5.53,0,0,1,.78,3,5.81,5.81,0,0,1-.81,3.09,6.79,6.79,0,0,1-2.07,2.13,9.47,9.47,0,0,1-2.72,1.21,11.88,11.88,0,0,1-3.1.41Zm8-3.92a1.11,1.11,0,0,0,.59,1.06,4.07,4.07,0,0,0,2.11.44,4.47,4.47,0,0,0,3.45-1.24,5.34,5.34,0,0,0,1.18-3.77,3.8,3.8,0,0,0-1.25-3,5.31,5.31,0,0,0-3.7-1.17c-.72,0-1.32,0-1.81,0l-.57,0Zm1.58-10.08a6.72,6.72,0,0,0,2.19-.31,3.1,3.1,0,0,0,1.35-.87,3.41,3.41,0,0,0,.75-1.31,6.4,6.4,0,0,0,.22-1.81,3.5,3.5,0,0,0-.91-2.59,4.15,4.15,0,0,0-3-.92l-1.34,0-.83,0v7.76Z"/><path class="cls-1" d="M470.2,46.86a5.92,5.92,0,0,1,1.74,1.78,5,5,0,0,1,.69,2.69,5.18,5.18,0,0,1-.73,2.79,5.87,5.87,0,0,1-1.89,2,8.88,8.88,0,0,1-2.56,1.14,11.22,11.22,0,0,1-2.95.39H453.13V56.45c.27,0,.67-.07,1.18-.14a4.61,4.61,0,0,0,1.12-.25,1.49,1.49,0,0,0,.74-.61,1.94,1.94,0,0,0,.22-1V37.88a2.32,2.32,0,0,0-.19-1,1.46,1.46,0,0,0-.77-.68,4.41,4.41,0,0,0-1.13-.37,8,8,0,0,0-1.05-.17V34.53h11.08a12.37,12.37,0,0,1,2.46.24,7.47,7.47,0,0,1,2.24.86,4.86,4.86,0,0,1,1.64,1.55,4.2,4.2,0,0,1,.64,2.37,4.87,4.87,0,0,1-.46,2.17,4.74,4.74,0,0,1-1.28,1.64,7.74,7.74,0,0,1-1.78,1.1,11.83,11.83,0,0,1-2.18.69v.14a14,14,0,0,1,2.31.5A8,8,0,0,1,470.2,46.86Zm-4.09-3.49a4.21,4.21,0,0,0,.87-1.53,7.12,7.12,0,0,0,.24-2,4,4,0,0,0-1.08-3,4.67,4.67,0,0,0-3.41-1.08c-.36,0-.81,0-1.36,0l-1.37,0v8.88h2.14a7.24,7.24,0,0,0,2.37-.34A3.73,3.73,0,0,0,466.11,43.37Zm2.34,7.37A4.36,4.36,0,0,0,467,47.37a5.83,5.83,0,0,0-4.08-1.31l-1.83,0-1.11,0v8.13a1.68,1.68,0,0,0,.86,1.55,4.6,4.6,0,0,0,2.4.52,5,5,0,0,0,3.86-1.42A5.84,5.84,0,0,0,468.45,50.74Z"/><path class="cls-1" d="M503.35,58.17l-.17-.25c-1.41-2.12-2.71-4-3.86-5.57s-2.29-3-3.58-4.64h-1.62v6.75a2,2,0,0,0,.14.78.75.75,0,0,0,.48.35,3.75,3.75,0,0,0,.94.18c.48.06.89.1,1.23.11l.55,0v2.27H486.17V55.93l.52,0,1.17-.11a3.35,3.35,0,0,0,.91-.17.88.88,0,0,0,.46-.37,1.64,1.64,0,0,0,.16-.77V37.78a2.35,2.35,0,0,0-.13-.8.76.76,0,0,0-.46-.34,7.41,7.41,0,0,0-1-.25c-.43-.07-.8-.12-1.08-.14l-.54,0V34h11.65a13.54,13.54,0,0,1,3,.32,8.46,8.46,0,0,1,2.59,1,5.57,5.57,0,0,1,1.87,1.9A5.38,5.38,0,0,1,506,40a6.74,6.74,0,0,1-.46,2.58,5.63,5.63,0,0,1-1.4,2,8.35,8.35,0,0,1-2,1.3,16.48,16.48,0,0,1-1.64.66c1,1.22,1.78,2.28,2.45,3.16s1.74,2.28,2.88,3.75a7.28,7.28,0,0,0,1.24,1.34,7.18,7.18,0,0,0,1.1.7,3.66,3.66,0,0,0,.94.27,8.26,8.26,0,0,0,1,.12l.55,0v2.27Zm-7.58-13a5,5,0,0,0,3.51-1.28,4.51,4.51,0,0,0,1.37-3.49,3.86,3.86,0,0,0-1.08-2.92,4.29,4.29,0,0,0-3.14-1.06h-2.31v8.75Z"/><path class="cls-1" d="M510.11,57.6h-6.46c-1.43-2.15-2.72-4-3.88-5.59s-2.4-3.19-3.76-4.86h-2.45v7.31a2.6,2.6,0,0,0,.18,1,1.32,1.32,0,0,0,.8.65,5.31,5.31,0,0,0,1.06.22c.51.06.94.1,1.29.11V57.6H486.74V56.45l1.18-.11a4.17,4.17,0,0,0,1.07-.22,1.46,1.46,0,0,0,.74-.61,2.15,2.15,0,0,0,.22-1V37.78a2.64,2.64,0,0,0-.17-1,1.24,1.24,0,0,0-.79-.67,12.21,12.21,0,0,0-2.25-.42V34.53h11.08a13.07,13.07,0,0,1,2.86.3,7.82,7.82,0,0,1,2.42,1A4.74,4.74,0,0,1,505.4,40a6,6,0,0,1-.43,2.36,4.8,4.8,0,0,1-1.25,1.77,7.82,7.82,0,0,1-1.82,1.22,14.84,14.84,0,0,1-2.36.87c1.19,1.5,2.17,2.77,3,3.8s1.74,2.28,2.88,3.76a8.05,8.05,0,0,0,1.34,1.44,6.57,6.57,0,0,0,1.2.75,4.36,4.36,0,0,0,1.1.33,7.52,7.52,0,0,0,1.09.13Zm-8.89-17.19A4.43,4.43,0,0,0,500,37.09a4.85,4.85,0,0,0-3.54-1.23h-2.87v9.89h2.21a5.51,5.51,0,0,0,3.89-1.44A5,5,0,0,0,501.22,40.41Z"/><path class="cls-1" d="M521.19,58.17V55.92l.53,0c.33,0,.76-.06,1.31-.13a3.74,3.74,0,0,0,1-.18,1,1,0,0,0,.48-.39,1.56,1.56,0,0,0,.14-.72V37.88a1.75,1.75,0,0,0-.13-.72.93.93,0,0,0-.49-.39,5.21,5.21,0,0,0-1.12-.34,8.65,8.65,0,0,0-1.14-.18l-.53,0V34h19.7v6.7h-2.26l-.12-.42a6.9,6.9,0,0,0-1.36-2.42,3.16,3.16,0,0,0-1.77-1.32q-.5-.06-1.2-.09c-.48,0-1,0-1.64,0h-3.2v8h2.14a4.82,4.82,0,0,0,1.69-.2,1.9,1.9,0,0,0,.83-.62,3.87,3.87,0,0,0,.54-1.08,8.51,8.51,0,0,0,.32-1.38l.06-.5h2.34V50.82H534.9l0-.52a7,7,0,0,0-.34-1.51A3.42,3.42,0,0,0,534,47.7a1.94,1.94,0,0,0-.91-.64,5.81,5.81,0,0,0-1.61-.18h-2.14v6.35a6.42,6.42,0,0,0,.13,1.5,1,1,0,0,0,.37.59,2.08,2.08,0,0,0,.95.3c.47.05,1.17.08,2.09.08h1.47c.59,0,1.09,0,1.49-.06a8.09,8.09,0,0,0,1.24-.22,1.53,1.53,0,0,0,.71-.31,9.7,9.7,0,0,0,1.54-2.24,15.22,15.22,0,0,0,1-2.24l.12-.39h2.24l-.53,7.93Z"/><path class="cls-1" d="M542.13,50.81l-.45,6.79H521.75V56.45c.34,0,.79-.07,1.36-.14a4.56,4.56,0,0,0,1.1-.22,1.5,1.5,0,0,0,.75-.63,2.09,2.09,0,0,0,.21-1V37.88a2.18,2.18,0,0,0-.19-1,1.38,1.38,0,0,0-.77-.68,6.31,6.31,0,0,0-1.23-.37,9,9,0,0,0-1.23-.2V34.53h18.58v5.56h-1.27a7.58,7.58,0,0,0-1.47-2.63,3.65,3.65,0,0,0-2.14-1.52c-.35,0-.76-.07-1.25-.09s-1,0-1.66,0h-3.77V45h2.71a5.54,5.54,0,0,0,1.9-.23,2.66,2.66,0,0,0,1.06-.79,4,4,0,0,0,.63-1.26,7.58,7.58,0,0,0,.35-1.49h1.27v9h-1.27a7.68,7.68,0,0,0-.36-1.65,4.3,4.3,0,0,0-.62-1.26,2.47,2.47,0,0,0-1.19-.83,6.59,6.59,0,0,0-1.77-.19h-2.71v6.91a6.58,6.58,0,0,0,.16,1.65,1.47,1.47,0,0,0,.59.9,2.53,2.53,0,0,0,1.2.4,19.59,19.59,0,0,0,2.16.09h1.47c.61,0,1.13,0,1.54-.06a11,11,0,0,0,1.33-.24,2,2,0,0,0,1-.46,10.3,10.3,0,0,0,1.64-2.37,15.83,15.83,0,0,0,1.09-2.33Z"/><path class="cls-1" d="M566.06,58.72a11.29,11.29,0,0,1-4.33-.85,11.14,11.14,0,0,1-3.68-2.47,12.13,12.13,0,0,1-2.52-3.92,13.79,13.79,0,0,1-.94-5.19,14.27,14.27,0,0,1,.92-5.22A12.39,12.39,0,0,1,558.06,37a11.27,11.27,0,0,1,3.83-2.62,12,12,0,0,1,4.69-.92,12.17,12.17,0,0,1,3.37.44,12.77,12.77,0,0,1,2.39,1l.57-.92h2.22l.18,9.36h-2.42l-.1-.44a17.48,17.48,0,0,0-.79-2.53,9.48,9.48,0,0,0-1.19-2.25,5.58,5.58,0,0,0-1.75-1.58,4.65,4.65,0,0,0-2.27-.55,6.32,6.32,0,0,0-2.8.64,6.42,6.42,0,0,0-2.24,1.9,9.54,9.54,0,0,0-1.44,3.16,16.62,16.62,0,0,0-.54,4.4,12.92,12.92,0,0,0,.56,3.89A9.68,9.68,0,0,0,561.9,53a7.55,7.55,0,0,0,2.37,2,6.52,6.52,0,0,0,3,.71,6.94,6.94,0,0,0,2.33-.38,6.3,6.3,0,0,0,1.83-1,8.35,8.35,0,0,0,1.38-1.52,8.65,8.65,0,0,0,1-1.86l.22-.56,2.31,1.07-.21.5a10.76,10.76,0,0,1-4.08,5.17A11.32,11.32,0,0,1,566.06,58.72Z"/><path class="cls-1" d="M566.06,58.16a10.73,10.73,0,0,1-7.6-3.16,11.19,11.19,0,0,1-2.4-3.73,13.08,13.08,0,0,1-.9-5,13.64,13.64,0,0,1,.88-5,11.77,11.77,0,0,1,2.43-3.88,10.83,10.83,0,0,1,3.64-2.49,12.1,12.1,0,0,1,7.69-.46,12.49,12.49,0,0,1,2.73,1.19l.69-1.1h1.36l.15,8.23h-1.39a18.25,18.25,0,0,0-.81-2.61,9.75,9.75,0,0,0-1.27-2.39A6.18,6.18,0,0,0,569.34,36a5.07,5.07,0,0,0-2.55-.62,6.64,6.64,0,0,0-5.49,2.76,9.9,9.9,0,0,0-1.54,3.35,17.34,17.34,0,0,0-.56,4.55,13.41,13.41,0,0,0,.59,4.06,10.13,10.13,0,0,0,1.66,3.24A7.79,7.79,0,0,0,564,55.54a7,7,0,0,0,3.3.78,7.52,7.52,0,0,0,2.52-.41,6.92,6.92,0,0,0,2-1.1,8.55,8.55,0,0,0,1.49-1.63,8.93,8.93,0,0,0,1.05-2l1.27.58a10.2,10.2,0,0,1-3.86,4.91A10.71,10.71,0,0,1,566.06,58.16Z"/><path class="cls-1" d="M603,58.17V55.93l1.69-.14a3.51,3.51,0,0,0,.88-.15,1,1,0,0,0,.49-.37,1.49,1.49,0,0,0,.15-.74V46.88H596v7.47a1.61,1.61,0,0,0,.13.71,1.18,1.18,0,0,0,.52.43,4.24,4.24,0,0,0,.88.24,7.31,7.31,0,0,0,1.06.15l.55,0v2.27h-11.1V55.93l1.7-.14a3.22,3.22,0,0,0,.87-.15.89.89,0,0,0,.49-.37,1.38,1.38,0,0,0,.16-.74V37.88a1.41,1.41,0,0,0-.16-.69.94.94,0,0,0-.49-.42,5.39,5.39,0,0,0-1-.34,5,5,0,0,0-1-.18l-.54,0V34h11.1v2.27l-.55,0a7.45,7.45,0,0,0-1.07.13,7.62,7.62,0,0,0-.95.23.63.63,0,0,0-.43.33,2,2,0,0,0-.14.77V44.3h10.14V37.88a1.6,1.6,0,0,0-.15-.7,1,1,0,0,0-.49-.41,5.78,5.78,0,0,0-1-.34,5.51,5.51,0,0,0-1-.18l-.53,0V34h11.1v2.27l-.56,0a7.45,7.45,0,0,0-1.07.13,7.62,7.62,0,0,0-1,.23.63.63,0,0,0-.42.33,2,2,0,0,0-.15.77V54.35a1.61,1.61,0,0,0,.13.71,1.31,1.31,0,0,0,.52.43,4.24,4.24,0,0,0,.88.24,6.56,6.56,0,0,0,1.07.15l.55,0v2.27Z"/><path class="cls-1" d="M613.5,57.6h-10V56.45l1.17-.1a3.87,3.87,0,0,0,1.06-.19,1.4,1.4,0,0,0,.74-.6,2,2,0,0,0,.24-1V46.32H595.47v8a2.13,2.13,0,0,0,.19,1,1.64,1.64,0,0,0,.77.68,4.4,4.4,0,0,0,1,.3,8.77,8.77,0,0,0,1.15.16V57.6h-10V56.45l1.18-.1a4,4,0,0,0,1.06-.19,1.44,1.44,0,0,0,.74-.6,2,2,0,0,0,.24-1V37.88a2.11,2.11,0,0,0-.22-1,1.5,1.5,0,0,0-.76-.68,6.85,6.85,0,0,0-1.11-.37,6.45,6.45,0,0,0-1.13-.2V34.53h10v1.15a7.27,7.27,0,0,0-1.15.15,8.56,8.56,0,0,0-1,.24,1.21,1.21,0,0,0-.77.65,2.53,2.53,0,0,0-.19,1v7.16h11.28v-7a2,2,0,0,0-.22-1,1.5,1.5,0,0,0-.76-.68,6.85,6.85,0,0,0-1.11-.37,6.35,6.35,0,0,0-1.12-.2V34.53h10v1.15a7.37,7.37,0,0,0-1.16.15,7.87,7.87,0,0,0-1,.24,1.19,1.19,0,0,0-.77.65,2.54,2.54,0,0,0-.2,1V54.35a2.13,2.13,0,0,0,.2,1,1.59,1.59,0,0,0,.77.68,4.29,4.29,0,0,0,1,.3,8.87,8.87,0,0,0,1.16.16Z"/><path class="cls-1" d="M630.61,58.17V55.92l.52,0,1.43-.12a5.26,5.26,0,0,0,1.19-.21,1.07,1.07,0,0,0,.56-.39,1.45,1.45,0,0,0,.17-.76v-18h-.41l-1.29,0c-.5,0-1,0-1.44.1a1.57,1.57,0,0,0-.83.49,7.15,7.15,0,0,0-1,1.22,10.21,10.21,0,0,0-.85,1.47,8.31,8.31,0,0,0-.51,1.27l-.12.42h-2.18V34h22.06v7.4h-2.17l-.12-.43a6.49,6.49,0,0,0-.51-1.28,11.24,11.24,0,0,0-.84-1.45,7.88,7.88,0,0,0-1-1.22,1.71,1.71,0,0,0-.86-.49c-.33,0-.75-.07-1.27-.1l-1.45,0h-.41V54.25a1.42,1.42,0,0,0,.17.72,1,1,0,0,0,.54.44,10.09,10.09,0,0,0,1.17.27,9.59,9.59,0,0,0,1.42.2l.55,0v2.27Z"/><path class="cls-1" d="M647.31,40.79h-1.17a6.94,6.94,0,0,0-.55-1.39,10.81,10.81,0,0,0-.89-1.52,7.59,7.59,0,0,0-1.11-1.31,2.16,2.16,0,0,0-1.16-.64c-.35,0-.79-.08-1.32-.1l-1.48,0h-1V54.25a2.07,2.07,0,0,0,.24,1,1.51,1.51,0,0,0,.82.69,9.87,9.87,0,0,0,1.28.31,9.56,9.56,0,0,0,1.52.21V57.6H631.17V56.45l1.45-.13a5.18,5.18,0,0,0,1.34-.25,1.59,1.59,0,0,0,.82-.6,1.88,1.88,0,0,0,.27-1.07V35.8h-1c-.35,0-.79,0-1.31,0s-1,0-1.48.11a2,2,0,0,0-1.16.64A8.43,8.43,0,0,0,629,37.88a10.28,10.28,0,0,0-.9,1.55,9,9,0,0,0-.54,1.36h-1.18V34.53h20.92Z"/><polygon class="cls-1" points="204.91 95.05 198.3 77.82 201.09 77.82 206.05 90.72 211.59 77.82 214.36 77.82 206.81 95.05 204.91 95.05"/><path class="cls-1" d="M212,78.39h1.54l-7.06,16.09H205.3l-6.18-16.09h1.58L206,92.22Z"/><rect class="cls-1" x="224.64" y="77.82" width="2.62" height="17.23"/><path class="cls-1" d="M226.7,94.48h-1.49V78.39h1.49Z"/><path class="cls-1" d="M243.26,95.27a10.39,10.39,0,0,1-4.29-.93l-.43-.21.75-2.43.59.28a8.53,8.53,0,0,0,3.52.88c1.31,0,3.52-.31,3.52-2.44,0-1.34-1.65-2.21-3.4-3.13-2.16-1.14-4.61-2.44-4.61-5.06,0-2.81,2.25-4.63,5.74-4.63a9.53,9.53,0,0,1,3.88.72l.44.19L248.33,81l-.6-.25a9,9,0,0,0-3.24-.67c-1.09,0-2.91.25-2.91,1.91,0,1.32,1.65,2.2,3.4,3.14,2.16,1.15,4.6,2.45,4.6,5C249.58,93.29,247.16,95.27,243.26,95.27Z"/><path class="cls-1" d="M239.64,92.49a9.31,9.31,0,0,0,3.76.94c2.16,0,4.08-.83,4.08-3,0-3.53-8-3.84-8-8.18,0-2.59,2.19-4.07,5.18-4.07a8.8,8.8,0,0,1,3.65.68L248,80.18a9.53,9.53,0,0,0-3.46-.72c-2,0-3.48.78-3.48,2.48,0,3.49,8,3.91,8,8.16,0,3.2-2.56,4.61-5.76,4.61a9.82,9.82,0,0,1-4-.88Z"/><path class="cls-1" d="M266.84,95.27c-3.94,0-5.93-2.07-5.93-6.15V77.82h2.62V88.63c0,3.05,1,4.19,3.58,4.19,1.1,0,3.66-.38,3.66-3.86V77.82h2.48V88.65C273.25,92.92,271,95.27,266.84,95.27Z"/><path class="cls-1" d="M261.48,89.12V78.39H263V88.63c0,3.33,1.21,4.76,4.15,4.76,2.21,0,4.23-1.28,4.23-4.43V78.39h1.35V88.65c0,4.38-2.51,6.06-5.85,6.06C263.26,94.71,261.48,92.92,261.48,89.12Z"/><path class="cls-1" d="M296.12,95.05l-2.55-6h-5.94l-2.6,6H282.3L290,77.82h1.56L299,95.05Zm-3.61-8.47-1.86-4.4-1.9,4.4Z"/><path class="cls-1" d="M294,88.45h-6.69l-2.6,6h-1.49l7.15-16.09h.82l7,16.09h-1.6Zm-6.06-1.3h5.47l-2.71-6.42Z"/><polygon class="cls-1" points="309.25 95.05 309.25 77.82 311.87 77.82 311.87 92.62 319.11 92.62 319.11 95.05 309.25 95.05"/><path class="cls-1" d="M309.82,94.48V78.39h1.48v14.8h7.25v1.29Z"/><path class="cls-1" d="M348.47,95.27a16.36,16.36,0,0,1-4.11-.5l-.39-.13V78.12l.46-.09a22.6,22.6,0,0,1,4.36-.43,8.09,8.09,0,0,1,8.44,8.48C357.23,91.58,353.71,95.27,348.47,95.27Zm-1.88-2.6a14.89,14.89,0,0,0,2.2.15c3.37,0,5.72-2.57,5.72-6.25,0-3.15-1.58-6.52-6-6.52a12.9,12.9,0,0,0-1.9.17Z"/><path class="cls-1" d="M344.54,94.24V78.59a22.6,22.6,0,0,1,4.25-.43c4.88,0,7.87,3.4,7.87,7.92,0,4.89-3,8.63-8.19,8.63A16.16,16.16,0,0,1,344.54,94.24ZM346,93.12a11.61,11.61,0,0,0,2.76.27c3.72,0,6.29-2.82,6.29-6.82,0-3.73-2.09-7.09-6.59-7.09a13.92,13.92,0,0,0-2.46.27Z"/><polygon class="cls-1" points="368.83 95.05 368.83 77.82 379.16 77.82 379.16 80.25 371.45 80.25 371.45 85.06 378.95 85.06 378.95 87.5 371.45 87.5 371.45 92.62 379.28 92.62 379.28 95.05 368.83 95.05"/><path class="cls-1" d="M370.88,85.63h7.5v1.3h-7.5v6.26h7.83v1.29H369.4V78.39h9.19v1.29h-7.71Z"/><path class="cls-1" d="M394.09,95.27a10.42,10.42,0,0,1-4.29-.93l-.43-.21.75-2.43.59.28a8.53,8.53,0,0,0,3.52.88c1.31,0,3.52-.31,3.52-2.44,0-1.34-1.65-2.21-3.4-3.13-2.16-1.14-4.61-2.44-4.61-5.06,0-2.81,2.25-4.63,5.74-4.63a9.5,9.5,0,0,1,3.88.72l.44.19L399.16,81l-.6-.25a9,9,0,0,0-3.24-.67c-1.09,0-2.91.25-2.91,1.91,0,1.32,1.65,2.2,3.41,3.14,2.15,1.15,4.6,2.45,4.6,5C400.42,93.29,398,95.27,394.09,95.27Z"/><path class="cls-1" d="M390.47,92.49a9.31,9.31,0,0,0,3.76.94c2.16,0,4.09-.83,4.09-3,0-3.53-8-3.84-8-8.18,0-2.59,2.18-4.07,5.17-4.07a8.77,8.77,0,0,1,3.65.68l-.35,1.34a9.49,9.49,0,0,0-3.46-.72c-2,0-3.48.78-3.48,2.48,0,3.49,8,3.91,8,8.16,0,3.2-2.56,4.61-5.76,4.61a9.82,9.82,0,0,1-4-.88Z"/><rect class="cls-1" x="411.81" y="77.82" width="2.62" height="17.23"/><path class="cls-1" d="M413.86,94.48h-1.48V78.39h1.48Z"/><path class="cls-1" d="M435.14,95.27c-5.62,0-9-3.27-9-8.77a8.78,8.78,0,0,1,9.06-8.9,9.85,9.85,0,0,1,3.88.73l.47.19L438.9,81l-.59-.23a8,8,0,0,0-3.31-.68,6.07,6.07,0,0,0-6.12,6.14c0,3,1.13,6.63,6.51,6.63a5.75,5.75,0,0,0,1.87-.28v-5h-3.48V85.08h6.1v9l-.27.16A9.52,9.52,0,0,1,435.14,95.27Z"/><path class="cls-1" d="M439.32,93.72a8.83,8.83,0,0,1-4.18,1c-6.18,0-8.41-3.89-8.41-8.21a8.25,8.25,0,0,1,8.5-8.34,9.31,9.31,0,0,1,3.67.7l-.37,1.34a8.75,8.75,0,0,0-3.53-.72,6.67,6.67,0,0,0-6.69,6.71c0,4,1.83,7.2,7.08,7.2a5.72,5.72,0,0,0,2.44-.47V87h-3.48v-1.3h5Z"/><polygon class="cls-1" points="462.52 95.05 454.41 82.72 454.41 95.05 451.95 95.05 451.95 77.82 454.12 77.82 462.19 90.03 462.19 77.82 464.65 77.82 464.65 95.05 462.52 95.05"/><path class="cls-1" d="M453.84,80.83V94.48h-1.32V78.39h1.3l8.94,13.52V78.39h1.32V94.48h-1.25Z"/><polygon class="cls-1" points="477.2 95.05 477.2 77.82 487.53 77.82 487.53 80.25 479.82 80.25 479.82 85.06 487.32 85.06 487.32 87.5 479.82 87.5 479.82 92.62 487.65 92.62 487.65 95.05 477.2 95.05"/><path class="cls-1" d="M479.25,85.63h7.5v1.3h-7.5v6.26h7.83v1.29h-9.31V78.39H487v1.29h-7.71Z"/><path class="cls-1" d="M508,95.05l-1.55-4.68c-.74-2.31-1.43-2.81-3.85-2.81h-1v7.49H499v-17l.48-.07a25.37,25.37,0,0,1,4.3-.39c3.59,0,5.74,1.68,5.74,4.5a5.08,5.08,0,0,1-2.39,4.23,5.23,5.23,0,0,1,1.5,2.59l2,6.13Zm-4.88-9.87c2.23,0,3.79-1.19,3.79-2.88,0-2-2.11-2.27-3.38-2.27a12.19,12.19,0,0,0-1.91.16v5Z"/><path class="cls-1" d="M508.36,94.48l-1.42-4.29c-.81-2.5-1.67-3.19-4.39-3.19H501v7.48h-1.42V78.54a26.32,26.32,0,0,1,4.21-.38c3.11,0,5.17,1.32,5.17,3.94a4.33,4.33,0,0,1-3.25,4.18c1.3.29,1.86,1.18,2.39,2.81l1.79,5.39ZM501,85.74h2.06c2.77,0,4.37-1.58,4.37-3.44s-1.46-2.84-3.95-2.84a14,14,0,0,0-2.48.25Z"/><path class="cls-2" d="M59.51,120.73V119h2.34v1.71Z"/><path class="cls-2" d="M61.85,119.87H60.36v0Z"/><path class="cls-2" d="M0,123.7V0H123.7V123.7ZM119,119V108.28A32.25,32.25,0,0,1,108.28,119Zm-27.41,0a27.41,27.41,0,0,0,0-54.82H64.19V119Zm-53.34,0A62.12,62.12,0,0,1,4.68,85.43V119ZM59.52,4.72A57.53,57.53,0,0,0,4.68,61.85,57.54,57.54,0,0,0,59.51,119ZM108.27,64.2A32.31,32.31,0,0,1,119,75V64.2ZM119,59.52V48.75a32.22,32.22,0,0,1-10.76,10.77Zm-27.41,0a27.41,27.41,0,0,0,0-54.82H64.2V59.51ZM4.68,38.27A62.12,62.12,0,0,1,38.27,4.68H4.68ZM108.26,4.68A32.37,32.37,0,0,1,119,15.44V4.68Z"/><path class="cls-2" d="M.85.85v122h122V.85Zm62.5,3H91.61a28.26,28.26,0,1,1,0,56.52H63.35Zm-59.52,0H43A61.24,61.24,0,0,0,3.83,43Zm0,116V80.67A61.24,61.24,0,0,0,43,119.87Zm56.53,0v0a58,58,0,0,1,0-116v116l1.49,0Zm3,0V63.34H91.61a28.26,28.26,0,1,1,0,56.52Zm56.53,0h-15a31.39,31.39,0,0,0,15-15Zm0-41.54a31.34,31.34,0,0,0-15-15h15Zm0-18h-15a31.38,31.38,0,0,0,15-15Zm0-41.56a31.43,31.43,0,0,0-15-15h15Z"/><path class="cls-2" d="M59.51,120.73V119h2.34v1.71Z"/><path class="cls-2" d="M61.85,119.87H60.36v0Z"/></g></g></svg>