<svg xmlns="http://www.w3.org/2000/svg" viewBox="0 0 648.16 123.7"><defs><style>.cls-1{fill:#fff;}.cls-2{fill:#d4af37;}</style></defs><g id="Ebene_2" data-name="Ebene 2"><g id="Ebene_1-2" data-name="Ebene 1"><path class="cls-1" d="M197,58.46V55.6h.85c.29,0,.69,0,1.18-.08a3.86,3.86,0,0,0,.79-.14.59.59,0,0,0,.34-.26,1.26,1.26,0,0,0,.12-.59V37.88a1.6,1.6,0,0,0-.12-.65.69.69,0,0,0-.35-.27,4,4,0,0,0-.93-.3,8.79,8.79,0,0,0-.95-.13l-.8-.05v-2.8h11.34a15.41,15.41,0,0,1,4.51.68,13.48,13.48,0,0,1,3.89,1.85,10.85,10.85,0,0,1,3.59,4.09,12.82,12.82,0,0,1,1.29,5.9,11.27,11.27,0,0,1-4.48,9.34,14.46,14.46,0,0,1-4.45,2.2,18,18,0,0,1-5,.72Zm8.58-4.81c0,1,.38,1.26.5,1.33a4.4,4.4,0,0,0,2.31.44,8.25,8.25,0,0,0,3.4-.65A5.9,5.9,0,0,0,214,53a8.16,8.16,0,0,0,1.39-2.87,15.2,15.2,0,0,0,.45-3.92,12.06,12.06,0,0,0-.6-3.93,8.68,8.68,0,0,0-1.71-3A7.35,7.35,0,0,0,211,37.4a8.27,8.27,0,0,0-3.43-.69l-1.54,0-.47,0Z"/><path class="cls-1" d="M220.87,46.2a10.42,10.42,0,0,1-4.14,8.66,13.27,13.27,0,0,1-4.18,2.06,16.66,16.66,0,0,1-4.79.68h-9.94V56.45a12,12,0,0,0,1.28-.09,4.65,4.65,0,0,0,1-.2,1.43,1.43,0,0,0,.73-.63,2.08,2.08,0,0,0,.23-1V37.88a2.48,2.48,0,0,0-.2-1,1.37,1.37,0,0,0-.76-.69,4.22,4.22,0,0,0-1.14-.36,8.37,8.37,0,0,0-1-.15V34.53h10.48a14.43,14.43,0,0,1,4.26.64,13.19,13.19,0,0,1,3.66,1.73,10.12,10.12,0,0,1,3.31,3.79A11.94,11.94,0,0,1,220.87,46.2Zm-4.14,0a13.24,13.24,0,0,0-.64-4.21,9.62,9.62,0,0,0-1.88-3.27,8.31,8.31,0,0,0-2.87-2.1,9.08,9.08,0,0,0-3.78-.76l-1.56,0c-.58,0-1,0-1.3,0V53.65a2.23,2.23,0,0,0,.9,2.05,5.24,5.24,0,0,0,2.76.57,8.93,8.93,0,0,0,3.75-.73,6.78,6.78,0,0,0,2.61-2,9.11,9.11,0,0,0,1.53-3.16A16.15,16.15,0,0,0,216.73,46.2Z"/><path class="cls-1" d="M246,59a12.64,12.64,0,0,1-5-1,11.63,11.63,0,0,1-3.94-2.72,12.2,12.2,0,0,1-2.56-4.1,14.07,14.07,0,0,1-.93-5.13,13.89,13.89,0,0,1,1-5.34,12.31,12.31,0,0,1,2.7-4.09,12,12,0,0,1,4-2.63,12.83,12.83,0,0,1,9.54,0,11.45,11.45,0,0,1,3.94,2.61,12,12,0,0,1,2.67,4.13,14.2,14.2,0,0,1,1,5.3,14,14,0,0,1-1,5.31,11.79,11.79,0,0,1-2.73,4.11,11.91,11.91,0,0,1-3.92,2.59A12.67,12.67,0,0,1,246,59Zm0-22.74a5.5,5.5,0,0,0-3,.77,6.13,6.13,0,0,0-2,2.1,10.59,10.59,0,0,0-1.16,3.1,18.4,18.4,0,0,0-.4,3.85,17.69,17.69,0,0,0,.42,4,9.85,9.85,0,0,0,1.27,3.09,6,6,0,0,0,2,2,6.21,6.21,0,0,0,5.73,0,5.53,5.53,0,0,0,2.07-2,9.91,9.91,0,0,0,1.27-3.09,19.76,19.76,0,0,0,0-8.15,9.71,9.71,0,0,0-1.3-3.11A5.57,5.57,0,0,0,246,36.27Z"/><path class="cls-1" d="M254.13,37.26a11.11,11.11,0,0,1,2.48,3.84,13.39,13.39,0,0,1,.9,5,13.08,13.08,0,0,1-.91,5,11.07,11.07,0,0,1-2.54,3.82,10.91,10.91,0,0,1-3.65,2.41,11.78,11.78,0,0,1-4.44.85,11.51,11.51,0,0,1-4.62-.91,10.63,10.63,0,0,1-3.65-2.51,11.37,11.37,0,0,1-2.39-3.83,13.26,13.26,0,0,1-.87-4.82,13,13,0,0,1,.91-5,11.62,11.62,0,0,1,2.52-3.81,10.85,10.85,0,0,1,3.7-2.44,11.94,11.94,0,0,1,8.9,0A10.78,10.78,0,0,1,254.13,37.26Zm-2.52,16.36A10.41,10.41,0,0,0,253,50.27a19.85,19.85,0,0,0,0-8.54,10.52,10.52,0,0,0-1.41-3.38,6.77,6.77,0,0,0-2.33-2.16,6.64,6.64,0,0,0-3.22-.77,6.33,6.33,0,0,0-3.45.9,7,7,0,0,0-2.31,2.39A10.81,10.81,0,0,0,239,42.06a20,20,0,0,0,0,8.26,10.71,10.71,0,0,0,1.39,3.35,6.74,6.74,0,0,0,2.3,2.24,6.67,6.67,0,0,0,9-2.29Z"/><path class="cls-1" d="M288.86,58.46V55.62l.83,0c.37,0,.84-.05,1.41-.11a3.28,3.28,0,0,0,.94-.18,1.33,1.33,0,0,0,.44-.4,1.08,1.08,0,0,0,.12-.56V41.21l-7,16.87h-2L277,41.13v9.81a12.35,12.35,0,0,0,.24,2.83,2,2,0,0,0,.52,1,3,3,0,0,0,1.21.48,8.45,8.45,0,0,0,1.35.3l.81,0v2.82H269.74V55.67l.78-.07a11.58,11.58,0,0,0,1.49-.23A2.18,2.18,0,0,0,273,55a1.54,1.54,0,0,0,.51-.92,14.32,14.32,0,0,0,.2-3V39.31a3.85,3.85,0,0,0-.2-1.37,1.62,1.62,0,0,0-.49-.72,2.35,2.35,0,0,0-1-.47,5.78,5.78,0,0,0-1.32-.22l-.81,0V33.68h9.61l6.3,15.88L290.88,37a12.38,12.38,0,0,0,.51-1.56,6,6,0,0,0,.22-1l.05-.8h9.48v2.83l-.83,0a8.4,8.4,0,0,0-1.09.13,7.78,7.78,0,0,0-1,.22.42.42,0,0,0-.27.18,1.71,1.71,0,0,0-.13.65V54.35a1.28,1.28,0,0,0,.11.57s.1.16.41.32a3.51,3.51,0,0,0,.84.22,9.85,9.85,0,0,0,1.12.14l.82,0v2.83Z"/><path class="cls-1" d="M300.32,57.6H289.71V56.45c.39,0,.88-.05,1.48-.11a4,4,0,0,0,1.25-.28,2.22,2.22,0,0,0,.77-.71,1.9,1.9,0,0,0,.24-1V37.57h-.25L285,57.23h-.84l-7.8-20.07h-.22V50.94a13.64,13.64,0,0,0,.26,3,2.81,2.81,0,0,0,.81,1.49,3.78,3.78,0,0,0,1.54.65,9,9,0,0,0,1.52.33V57.6h-9.69V56.45a14.3,14.3,0,0,0,1.59-.24,3.2,3.2,0,0,0,1.3-.54,2.39,2.39,0,0,0,.81-1.4,15.39,15.39,0,0,0,.22-3.15V39.31a4.72,4.72,0,0,0-.25-1.68,2.68,2.68,0,0,0-.73-1.05,3.27,3.27,0,0,0-1.29-.65,6.11,6.11,0,0,0-1.5-.25V34.53h8.18l6.88,17.32,5.86-14.49a12.56,12.56,0,0,0,.55-1.67,6.8,6.8,0,0,0,.25-1.16h7.83v1.15a8.38,8.38,0,0,0-1.21.15,8.49,8.49,0,0,0-1.08.24,1.21,1.21,0,0,0-.77.65,2.38,2.38,0,0,0-.21,1V54.35a2,2,0,0,0,.21,1A1.64,1.64,0,0,0,298,56a4.38,4.38,0,0,0,1.09.31,9.14,9.14,0,0,0,1.23.15Z"/><path class="cls-1" d="M313.29,58.46v-2.8l2.1-.16a4.17,4.17,0,0,0,1-.14.83.83,0,0,0,.41-.27.91.91,0,0,0,.1-.53V37.84a1.24,1.24,0,0,0-.1-.57h0a1.13,1.13,0,0,0-.41-.22,9.05,9.05,0,0,0-1.17-.34,8.91,8.91,0,0,0-1.12-.18l-.8-.05v-2.8H325.8v2.83l-.83,0c-.3,0-.69,0-1.15.11a8.07,8.07,0,0,0-1.15.25.61.61,0,0,0-.35.2,1.35,1.35,0,0,0-.12.59v16.7a1,1,0,0,0,.12.52,1,1,0,0,0,.43.31c.1,0,.38.11,1,.24a8.18,8.18,0,0,0,1.22.15l.83,0v2.84Z"/><path class="cls-1" d="M325,57.6H314.14V56.45l1.32-.1a5.43,5.43,0,0,0,1.22-.19,1.7,1.7,0,0,0,.81-.58,1.77,1.77,0,0,0,.25-1V37.85a2.28,2.28,0,0,0-.18-1,1.54,1.54,0,0,0-.88-.64,9,9,0,0,0-1.28-.36,7.79,7.79,0,0,0-1.26-.21V34.53H325v1.15a11,11,0,0,0-1.25.12,8.47,8.47,0,0,0-1.27.27,1.33,1.33,0,0,0-.87.64,2.19,2.19,0,0,0-.21,1v16.7a1.84,1.84,0,0,0,.24.95,1.6,1.6,0,0,0,.84.66,7,7,0,0,0,1.16.29,8.8,8.8,0,0,0,1.36.17Z"/><path class="cls-1" d="M357.72,58.68,344.44,41.45v9.41a12.87,12.87,0,0,0,.24,2.87,2,2,0,0,0,.52,1.08,3.29,3.29,0,0,0,1.27.49,8.25,8.25,0,0,0,1.43.3l.82,0v2.83H337.17v-2.8l.79-.06a8.31,8.31,0,0,0,1.39-.29,4.9,4.9,0,0,0,1-.35,1.6,1.6,0,0,0,.51-.93,14.45,14.45,0,0,0,.2-3V39.67a3.69,3.69,0,0,0-.22-1.21,2.08,2.08,0,0,0-.49-.81,4.52,4.52,0,0,0-1.38-.76,5,5,0,0,0-1.43-.36l-.81,0V33.68h8.13l12.22,15.93V41.14a13,13,0,0,0-.25-2.89c-.18-.73-.4-.92-.45-1a4.73,4.73,0,0,0-1.27-.47,7.31,7.31,0,0,0-1.46-.3l-.8,0V33.68h11.46v2.83l-.83,0a6.93,6.93,0,0,0-1.27.24,4.55,4.55,0,0,0-1.17.4,1.63,1.63,0,0,0-.42,1,15,15,0,0,0-.2,2.78V58.68Z"/><path class="cls-1" d="M363.5,35.68a7.92,7.92,0,0,0-1.46.26,5.36,5.36,0,0,0-1.4.5,2.3,2.3,0,0,0-.82,1.57,16.8,16.8,0,0,0-.21,2.93V57.83h-1.48L343.59,39V50.86a14.07,14.07,0,0,0,.26,3.07,2.91,2.91,0,0,0,.8,1.53,4,4,0,0,0,1.61.66,9.81,9.81,0,0,0,1.61.33V57.6H338V56.45a9.52,9.52,0,0,0,1.54-.32,4.32,4.32,0,0,0,1.36-.51,2.4,2.4,0,0,0,.81-1.39A16.41,16.41,0,0,0,342,51V39.67a4.4,4.4,0,0,0-.27-1.5A2.78,2.78,0,0,0,341,37a5,5,0,0,0-1.65-.92,5.81,5.81,0,0,0-1.68-.42V34.53h6.86L358,52.12v-11a13.5,13.5,0,0,0-.27-3.09,2.49,2.49,0,0,0-.78-1.44,5.53,5.53,0,0,0-1.55-.6,8.39,8.39,0,0,0-1.63-.33V34.53h9.76Z"/><path class="cls-1" d="M375.18,58.46v-2.8l2.11-.16a4.14,4.14,0,0,0,1-.14.79.79,0,0,0,.41-.27.91.91,0,0,0,.1-.53V37.84a1.32,1.32,0,0,0-.1-.58h0a1.47,1.47,0,0,0-.41-.21,9.26,9.26,0,0,0-2.29-.52l-.8-.05v-2.8h12.51v2.83l-.83,0c-.3,0-.68,0-1.15.11a7.62,7.62,0,0,0-1.14.25.6.6,0,0,0-.35.19,1.32,1.32,0,0,0-.13.6v16.7a1,1,0,0,0,.12.52,1,1,0,0,0,.43.31c.1,0,.38.11,1,.24a8.18,8.18,0,0,0,1.22.15l.83,0v2.84Z"/><path class="cls-1" d="M386.84,57.6H376V56.45l1.32-.1a5.33,5.33,0,0,0,1.22-.19,1.7,1.7,0,0,0,.81-.58,1.77,1.77,0,0,0,.25-1V37.85a2.28,2.28,0,0,0-.18-1,1.54,1.54,0,0,0-.88-.64,9,9,0,0,0-1.28-.36,7.79,7.79,0,0,0-1.26-.21V34.53h10.81v1.15a11,11,0,0,0-1.25.12,8.47,8.47,0,0,0-1.27.27,1.29,1.29,0,0,0-.86.64,2.07,2.07,0,0,0-.22,1v16.7a1.84,1.84,0,0,0,.24.95,1.64,1.64,0,0,0,.84.66,7.31,7.31,0,0,0,1.16.29,9,9,0,0,0,1.36.17Z"/><path class="cls-1" d="M411.32,59a11.68,11.68,0,0,1-4.44-.88,11.53,11.53,0,0,1-3.77-2.53,12.52,12.52,0,0,1-2.58-4,14,14,0,0,1-1-5.3,14.69,14.69,0,0,1,.94-5.33,12.71,12.71,0,0,1,2.61-4.16A11.6,11.6,0,0,1,407,34.12a12.29,12.29,0,0,1,4.81-.95,12.46,12.46,0,0,1,3.45.46,13.42,13.42,0,0,1,2.2.87l.52-.82h2.66l.18,9.93h-2.94l-.14-.67a19.91,19.91,0,0,0-.78-2.49,9.29,9.29,0,0,0-1.16-2.18,5.14,5.14,0,0,0-1.66-1.5,4.17,4.17,0,0,0-2.13-.51,5.85,5.85,0,0,0-2.67.61,5.93,5.93,0,0,0-2.14,1.81,9.3,9.3,0,0,0-1.4,3.07,16.45,16.45,0,0,0-.52,4.32,12.74,12.74,0,0,0,.54,3.8,9.5,9.5,0,0,0,1.53,3,7.23,7.23,0,0,0,2.28,1.93,6.21,6.21,0,0,0,2.91.68,6.69,6.69,0,0,0,2.23-.36,6.08,6.08,0,0,0,1.74-1,7.7,7.7,0,0,0,1.33-1.45,8,8,0,0,0,.94-1.79l.33-.86L422,51.36l-.32.75a10.93,10.93,0,0,1-4.19,5.3A11.6,11.6,0,0,1,411.32,59Z"/><path class="cls-1" d="M411.32,58.16a10.73,10.73,0,0,1-7.6-3.16,11.52,11.52,0,0,1-2.4-3.73,13.08,13.08,0,0,1-.9-5,13.85,13.85,0,0,1,.88-5,11.8,11.8,0,0,1,2.44-3.88,10.69,10.69,0,0,1,3.63-2.49,11.58,11.58,0,0,1,4.48-.88,11.45,11.45,0,0,1,3.21.42,12.49,12.49,0,0,1,2.73,1.19l.7-1.1h1.35l.15,8.23h-1.38a19.75,19.75,0,0,0-.82-2.61,10.09,10.09,0,0,0-1.26-2.39A6.1,6.1,0,0,0,414.6,36a5.07,5.07,0,0,0-2.55-.62,6.86,6.86,0,0,0-3.05.69,7,7,0,0,0-2.44,2.07A10.1,10.1,0,0,0,405,41.52a17.34,17.34,0,0,0-.56,4.55,13.41,13.41,0,0,0,.59,4.06,10.34,10.34,0,0,0,1.66,3.24,7.9,7.9,0,0,0,2.56,2.17,7,7,0,0,0,3.31.78,7.47,7.47,0,0,0,2.51-.41,7.12,7.12,0,0,0,2-1.1,8.83,8.83,0,0,0,1.48-1.63,8.93,8.93,0,0,0,1.05-2l1.27.58A10.19,10.19,0,0,1,417,56.69,10.75,10.75,0,0,1,411.32,58.16Z"/><path class="cls-1" d="M452.28,58.46V55.67l.78-.07c.26,0,.64-.06,1.13-.13a3.93,3.93,0,0,0,.9-.19.75.75,0,0,0,.35-.26,1.09,1.09,0,0,0,.1-.56V37.88a1.6,1.6,0,0,0-.11-.62.75.75,0,0,0-.35-.27,4,4,0,0,0-1-.31,8.61,8.61,0,0,0-.93-.15l-.79-.05v-2.8h11.93a12.48,12.48,0,0,1,2.63.26,8.3,8.3,0,0,1,2.5,1,5.63,5.63,0,0,1,1.92,1.81,5.06,5.06,0,0,1,.78,2.84,5.78,5.78,0,0,1-.54,2.54A5.51,5.51,0,0,1,470.11,44a7.83,7.83,0,0,1-1.64,1.06,8.91,8.91,0,0,1,2.21,1.08,6.66,6.66,0,0,1,2,2,5.81,5.81,0,0,1,.82,3.14,6.1,6.1,0,0,1-.85,3.24,7,7,0,0,1-2.16,2.22,9.62,9.62,0,0,1-2.8,1.24,12,12,0,0,1-3.17.43Zm8.57-4.21a.84.84,0,0,0,.45.82,3.83,3.83,0,0,0,2,.4,4.23,4.23,0,0,0,3.24-1.15,5.1,5.1,0,0,0,1.1-3.58A3.55,3.55,0,0,0,466.45,48a5,5,0,0,0-3.51-1.09l-1.8,0h-.29Zm1.29-10.36a6.43,6.43,0,0,0,2.1-.3,2.77,2.77,0,0,0,1.23-.78,3.21,3.21,0,0,0,.69-1.21,6.15,6.15,0,0,0,.21-1.73,3.2,3.2,0,0,0-.83-2.39,3.92,3.92,0,0,0-2.81-.83c-.35,0-.8,0-1.33,0l-.55,0v7.2Z"/><path class="cls-1" d="M470.2,46.86a5.92,5.92,0,0,1,1.74,1.78,5,5,0,0,1,.69,2.69,5.18,5.18,0,0,1-.73,2.79,5.87,5.87,0,0,1-1.89,2,8.88,8.88,0,0,1-2.56,1.14,11.22,11.22,0,0,1-2.95.39H453.13V56.45c.27,0,.67-.07,1.18-.14a4.61,4.61,0,0,0,1.12-.25,1.49,1.49,0,0,0,.74-.61,1.94,1.94,0,0,0,.22-1V37.88a2.32,2.32,0,0,0-.19-1,1.46,1.46,0,0,0-.77-.68,4.41,4.41,0,0,0-1.13-.37,8,8,0,0,0-1.05-.17V34.53h11.08a12.37,12.37,0,0,1,2.46.24,7.47,7.47,0,0,1,2.24.86,4.86,4.86,0,0,1,1.64,1.55,4.2,4.2,0,0,1,.64,2.37,4.87,4.87,0,0,1-.46,2.17,4.74,4.74,0,0,1-1.28,1.64,7.74,7.74,0,0,1-1.78,1.1,11.83,11.83,0,0,1-2.18.69v.14a14,14,0,0,1,2.31.5A8,8,0,0,1,470.2,46.86Zm-4.09-3.49a4.21,4.21,0,0,0,.87-1.53,7.12,7.12,0,0,0,.24-2,4,4,0,0,0-1.08-3,4.67,4.67,0,0,0-3.41-1.08c-.36,0-.81,0-1.36,0l-1.37,0v8.88h2.14a7.24,7.24,0,0,0,2.37-.34A3.73,3.73,0,0,0,466.11,43.37Zm2.34,7.37A4.36,4.36,0,0,0,467,47.37a5.83,5.83,0,0,0-4.08-1.31l-1.83,0-1.11,0v8.13a1.68,1.68,0,0,0,.86,1.55,4.6,4.6,0,0,0,2.4.52,5,5,0,0,0,3.86-1.42A5.84,5.84,0,0,0,468.45,50.74Z"/><path class="cls-1" d="M503.2,58.46l-.26-.39c-1.4-2.11-2.7-4-3.85-5.56s-2.23-2.95-3.48-4.51h-1.2v6.46a1.84,1.84,0,0,0,.11.67.69.69,0,0,0,.32.2,4.54,4.54,0,0,0,.87.16c.47.06.88.1,1.2.11l.83,0v2.84H485.89V55.67l.78-.07,1.16-.11a3.37,3.37,0,0,0,.82-.15.63.63,0,0,0,.34-.25,1.38,1.38,0,0,0,.11-.63V37.78a1.84,1.84,0,0,0-.11-.7.59.59,0,0,0-.29-.18,6.49,6.49,0,0,0-1-.23c-.42-.07-.78-.12-1.05-.14l-.8-.05v-2.8h11.93a14.1,14.1,0,0,1,3,.32,8.8,8.8,0,0,1,2.68,1.07,5.83,5.83,0,0,1,2,2,5.66,5.66,0,0,1,.75,3,7.13,7.13,0,0,1-.49,2.69,5.81,5.81,0,0,1-1.47,2.08,8.13,8.13,0,0,1-2,1.34,12.46,12.46,0,0,1-1.29.54c.85,1.1,1.59,2,2.2,2.86.78,1,1.74,2.28,2.88,3.75a7.44,7.44,0,0,0,1.19,1.29,6.93,6.93,0,0,0,1.05.66,3.52,3.52,0,0,0,.87.25,7.67,7.67,0,0,0,1,.12l.81,0v2.83ZM495.77,44.9a4.66,4.66,0,0,0,3.31-1.21,4.19,4.19,0,0,0,1.29-3.28,3.62,3.62,0,0,0-1-2.72,4,4,0,0,0-2.94-1h-2V44.9Z"/><path class="cls-1" d="M510.11,57.6h-6.46c-1.43-2.15-2.72-4-3.88-5.59s-2.4-3.19-3.76-4.86h-2.45v7.31a2.6,2.6,0,0,0,.18,1,1.32,1.32,0,0,0,.8.65,5.31,5.31,0,0,0,1.06.22c.51.06.94.1,1.29.11V57.6H486.74V56.45l1.18-.11a4.17,4.17,0,0,0,1.07-.22,1.46,1.46,0,0,0,.74-.61,2.15,2.15,0,0,0,.22-1V37.78a2.64,2.64,0,0,0-.17-1,1.24,1.24,0,0,0-.79-.67,12.21,12.21,0,0,0-2.25-.42V34.53h11.08a13.07,13.07,0,0,1,2.86.3,7.82,7.82,0,0,1,2.42,1A4.74,4.74,0,0,1,505.4,40a6,6,0,0,1-.43,2.36,4.8,4.8,0,0,1-1.25,1.77,7.82,7.82,0,0,1-1.82,1.22,14.84,14.84,0,0,1-2.36.87c1.19,1.5,2.17,2.77,3,3.8s1.74,2.28,2.88,3.76a8.05,8.05,0,0,0,1.34,1.44,6.57,6.57,0,0,0,1.2.75,4.36,4.36,0,0,0,1.1.33,7.52,7.52,0,0,0,1.09.13Zm-8.89-17.19A4.43,4.43,0,0,0,500,37.09a4.85,4.85,0,0,0-3.54-1.23h-2.87v9.89h2.21a5.51,5.51,0,0,0,3.89-1.44A5,5,0,0,0,501.22,40.41Z"/><path class="cls-1" d="M520.9,58.46V55.65l.8,0c.32,0,.76-.06,1.3-.13a4.15,4.15,0,0,0,.87-.16.73.73,0,0,0,.34-.26,1.29,1.29,0,0,0,.11-.59V37.88a1.5,1.5,0,0,0-.11-.6.67.67,0,0,0-.35-.25,4.67,4.67,0,0,0-1.06-.32,10,10,0,0,0-1.1-.18l-.8-.05v-2.8h20.28v7.26h-2.77l-.17-.63A6.64,6.64,0,0,0,536.93,38c-.75-.93-1.28-1.18-1.58-1.21s-.73-.08-1.18-.1-1,0-1.63,0h-2.92v7.47h1.86a5,5,0,0,0,1.59-.17,1.73,1.73,0,0,0,.71-.54,3.36,3.36,0,0,0,.49-1,7.82,7.82,0,0,0,.31-1.32l.09-.75h2.87V51.1h-2.9l-.07-.77a6.23,6.23,0,0,0-.32-1.45,3.16,3.16,0,0,0-.47-1,1.57,1.57,0,0,0-.77-.55,5.62,5.62,0,0,0-1.53-.16h-1.86v6.06a6.37,6.37,0,0,0,.13,1.43.67.67,0,0,0,.25.42,1.81,1.81,0,0,0,.82.26,20.47,20.47,0,0,0,2.06.08h1.47c.58,0,1.07,0,1.46-.06a7.73,7.73,0,0,0,1.21-.22,1.35,1.35,0,0,0,.57-.23,9.63,9.63,0,0,0,1.49-2.17,15,15,0,0,0,1-2.19l.18-.59H543l-.57,8.5Z"/><path class="cls-1" d="M542.13,50.81l-.45,6.79H521.75V56.45c.34,0,.79-.07,1.36-.14a4.56,4.56,0,0,0,1.1-.22,1.5,1.5,0,0,0,.75-.63,2.09,2.09,0,0,0,.21-1V37.88a2.18,2.18,0,0,0-.19-1,1.38,1.38,0,0,0-.77-.68,6.31,6.31,0,0,0-1.23-.37,9,9,0,0,0-1.23-.2V34.53h18.58v5.56h-1.27a7.58,7.58,0,0,0-1.47-2.63,3.65,3.65,0,0,0-2.14-1.52c-.35,0-.76-.07-1.25-.09s-1,0-1.66,0h-3.77V45h2.71a5.54,5.54,0,0,0,1.9-.23,2.66,2.66,0,0,0,1.06-.79,4,4,0,0,0,.63-1.26,7.58,7.58,0,0,0,.35-1.49h1.27v9h-1.27a7.68,7.68,0,0,0-.36-1.65,4.3,4.3,0,0,0-.62-1.26,2.47,2.47,0,0,0-1.19-.83,6.59,6.59,0,0,0-1.77-.19h-2.71v6.91a6.58,6.58,0,0,0,.16,1.65,1.47,1.47,0,0,0,.59.9,2.53,2.53,0,0,0,1.2.4,19.59,19.59,0,0,0,2.16.09h1.47c.61,0,1.13,0,1.54-.06a11,11,0,0,0,1.33-.24,2,2,0,0,0,1-.46,10.3,10.3,0,0,0,1.64-2.37,15.83,15.83,0,0,0,1.09-2.33Z"/><path class="cls-1" d="M566.06,59a11.68,11.68,0,0,1-4.44-.88,11.53,11.53,0,0,1-3.77-2.53,12.41,12.41,0,0,1-2.58-4,14,14,0,0,1-1-5.3,14.69,14.69,0,0,1,.94-5.33,12.71,12.71,0,0,1,2.61-4.16,11.6,11.6,0,0,1,3.92-2.68,12.83,12.83,0,0,1,8.25-.49,13.53,13.53,0,0,1,2.21.87l.51-.82h2.66l.19,9.93h-2.94l-.15-.67a17.2,17.2,0,0,0-.77-2.49,8.9,8.9,0,0,0-1.16-2.18,5.24,5.24,0,0,0-1.66-1.5,4.2,4.2,0,0,0-2.13-.51,5.85,5.85,0,0,0-2.67.61A5.93,5.93,0,0,0,562,38.68a9.11,9.11,0,0,0-1.4,3.07,16.43,16.43,0,0,0-.53,4.32,12.64,12.64,0,0,0,.55,3.8,9.52,9.52,0,0,0,1.52,3,7.17,7.17,0,0,0,2.29,1.94,6.17,6.17,0,0,0,2.9.68,6.6,6.6,0,0,0,2.23-.36,6.14,6.14,0,0,0,1.75-1,7.68,7.68,0,0,0,2.27-3.25l.33-.85,2.84,1.32-.32.75a11,11,0,0,1-4.19,5.3A11.6,11.6,0,0,1,566.06,59Z"/><path class="cls-1" d="M566.06,58.16a10.73,10.73,0,0,1-7.6-3.16,11.19,11.19,0,0,1-2.4-3.73,13.08,13.08,0,0,1-.9-5,13.64,13.64,0,0,1,.88-5,11.77,11.77,0,0,1,2.43-3.88,10.83,10.83,0,0,1,3.64-2.49,12.1,12.1,0,0,1,7.69-.46,12.49,12.49,0,0,1,2.73,1.19l.69-1.1h1.36l.15,8.23h-1.39a18.25,18.25,0,0,0-.81-2.61,9.75,9.75,0,0,0-1.27-2.39A6.18,6.18,0,0,0,569.34,36a5.07,5.07,0,0,0-2.55-.62,6.64,6.64,0,0,0-5.49,2.76,9.9,9.9,0,0,0-1.54,3.35,17.34,17.34,0,0,0-.56,4.55,13.41,13.41,0,0,0,.59,4.06,10.13,10.13,0,0,0,1.66,3.24A7.79,7.79,0,0,0,564,55.54a7,7,0,0,0,3.3.78,7.52,7.52,0,0,0,2.52-.41,6.92,6.92,0,0,0,2-1.1,8.55,8.55,0,0,0,1.49-1.63,8.93,8.93,0,0,0,1.05-2l1.27.58a10.2,10.2,0,0,1-3.86,4.91A10.71,10.71,0,0,1,566.06,58.16Z"/><path class="cls-1" d="M602.69,58.46V55.67l1.95-.17a3.36,3.36,0,0,0,.78-.12c.25-.1.33-.19.36-.25a1.2,1.2,0,0,0,.12-.6V47.17h-9.58v7.18a1.38,1.38,0,0,0,.11.59,1,1,0,0,0,.39.3,4.68,4.68,0,0,0,.8.21,7.53,7.53,0,0,0,1,.15l.81,0v2.83H587.8V55.67l2-.17a3.54,3.54,0,0,0,.78-.12.7.7,0,0,0,.36-.25,1.32,1.32,0,0,0,.12-.6V37.88a1.22,1.22,0,0,0-.13-.56s-.09-.17-.35-.29a6.41,6.41,0,0,0-1-.33,6,6,0,0,0-1-.17l-.8-.05v-2.8h11.66v2.83l-.82,0a6.74,6.74,0,0,0-1,.13,7.29,7.29,0,0,0-.92.22c-.21.07-.24.15-.25.18a1.51,1.51,0,0,0-.13.65V44h9.58V37.88a1.17,1.17,0,0,0-.13-.57s-.08-.16-.35-.28a6.05,6.05,0,0,0-1-.33,5.85,5.85,0,0,0-1-.17l-.79-.05v-2.8h11.66v2.83l-.83,0a6.9,6.9,0,0,0-1,.13,7.29,7.29,0,0,0-.92.22c-.21.07-.24.15-.25.18a1.51,1.51,0,0,0-.13.65V54.35a1.38,1.38,0,0,0,.11.59,1,1,0,0,0,.39.3,4.68,4.68,0,0,0,.8.21,7.75,7.75,0,0,0,1,.15l.82,0v2.83Z"/><path class="cls-1" d="M613.5,57.6h-10V56.45l1.17-.1a3.87,3.87,0,0,0,1.06-.19,1.4,1.4,0,0,0,.74-.6,2,2,0,0,0,.24-1V46.32H595.47v8a2.13,2.13,0,0,0,.19,1,1.64,1.64,0,0,0,.77.68,4.4,4.4,0,0,0,1,.3,8.77,8.77,0,0,0,1.15.16V57.6h-10V56.45l1.18-.1a4,4,0,0,0,1.06-.19,1.44,1.44,0,0,0,.74-.6,2,2,0,0,0,.24-1V37.88a2.11,2.11,0,0,0-.22-1,1.5,1.5,0,0,0-.76-.68,6.85,6.85,0,0,0-1.11-.37,6.45,6.45,0,0,0-1.13-.2V34.53h10v1.15a7.27,7.27,0,0,0-1.15.15,8.56,8.56,0,0,0-1,.24,1.21,1.21,0,0,0-.77.65,2.53,2.53,0,0,0-.19,1v7.16h11.28v-7a2,2,0,0,0-.22-1,1.5,1.5,0,0,0-.76-.68,6.85,6.85,0,0,0-1.11-.37,6.35,6.35,0,0,0-1.12-.2V34.53h10v1.15a7.37,7.37,0,0,0-1.16.15,7.87,7.87,0,0,0-1,.24,1.19,1.19,0,0,0-.77.65,2.54,2.54,0,0,0-.2,1V54.35a2.13,2.13,0,0,0,.2,1,1.59,1.59,0,0,0,.77.68,4.29,4.29,0,0,0,1,.3,8.87,8.87,0,0,0,1.16.16Z"/><path class="cls-1" d="M630.32,58.46v-2.8l.79-.06c.31,0,.79-.06,1.43-.13a4.4,4.4,0,0,0,1.11-.19.83.83,0,0,0,.42-.28,1.06,1.06,0,0,0,.13-.6V36.65h-.13c-.35,0-.77,0-1.28,0s-1,0-1.42.1a1.29,1.29,0,0,0-.67.41,8.14,8.14,0,0,0-1,1.18,10.66,10.66,0,0,0-.83,1.43,8.79,8.79,0,0,0-.49,1.23l-.17.62h-2.68v-8h22.62v8h-2.67l-.17-.64a6.9,6.9,0,0,0-.49-1.23,11.36,11.36,0,0,0-.83-1.41,6.78,6.78,0,0,0-1-1.17,1.37,1.37,0,0,0-.7-.42c-.32,0-.73-.07-1.24-.09l-1.44,0h-.13v17.6a1.25,1.25,0,0,0,.14.59.69.69,0,0,0,.4.3,8.65,8.65,0,0,0,1.12.26,9.24,9.24,0,0,0,1.37.2l.83,0v2.84Z"/><path class="cls-1" d="M647.31,40.79h-1.17a6.94,6.94,0,0,0-.55-1.39,10.81,10.81,0,0,0-.89-1.52,7.59,7.59,0,0,0-1.11-1.31,2.16,2.16,0,0,0-1.16-.64c-.35,0-.79-.08-1.32-.1l-1.48,0h-1V54.25a2.07,2.07,0,0,0,.24,1,1.51,1.51,0,0,0,.82.69,9.87,9.87,0,0,0,1.28.31,9.56,9.56,0,0,0,1.52.21V57.6H631.17V56.45l1.45-.13a5.18,5.18,0,0,0,1.34-.25,1.59,1.59,0,0,0,.82-.6,1.88,1.88,0,0,0,.27-1.07V35.8h-1c-.35,0-.79,0-1.31,0s-1,0-1.48.11a2,2,0,0,0-1.16.64A8.43,8.43,0,0,0,629,37.88a10.28,10.28,0,0,0-.9,1.55,9,9,0,0,0-.54,1.36h-1.18V34.53h20.92Z"/><polygon class="cls-1" points="204.72 95.33 197.89 77.54 201.29 77.54 206.06 89.97 211.4 77.54 214.8 77.54 206.99 95.33 204.72 95.33"/><path class="cls-1" d="M212,78.39h1.54l-7.06,16.09H205.3l-6.18-16.09h1.58L206,92.22Z"/><rect class="cls-1" x="224.36" y="77.54" width="3.19" height="17.79"/><path class="cls-1" d="M226.7,94.48h-1.49V78.39h1.49Z"/><path class="cls-1" d="M243.26,95.56a10.67,10.67,0,0,1-4.42-1l-.65-.33.93-3,.88.43a8.64,8.64,0,0,0,3.4.85c1.21,0,3.23-.28,3.23-2.16,0-1.17-1.57-2-3.24-2.88-2.23-1.18-4.77-2.51-4.77-5.31s2.43-4.92,6-4.92a9.86,9.86,0,0,1,4,.75l.66.29-.78,3-.9-.38a8.6,8.6,0,0,0-3.13-.65c-1.2,0-2.63.29-2.63,1.63,0,1.15,1.58,2,3.26,2.89,2.22,1.19,4.75,2.53,4.75,5.27C249.87,93.47,247.34,95.56,243.26,95.56Z"/><path class="cls-1" d="M239.64,92.49a9.31,9.31,0,0,0,3.76.94c2.16,0,4.08-.83,4.08-3,0-3.53-8-3.84-8-8.18,0-2.59,2.19-4.07,5.18-4.07a8.8,8.8,0,0,1,3.65.68L248,80.18a9.53,9.53,0,0,0-3.46-.72c-2,0-3.48.78-3.48,2.48,0,3.49,8,3.91,8,8.16,0,3.2-2.56,4.61-5.76,4.61a9.82,9.82,0,0,1-4-.88Z"/><path class="cls-1" d="M266.84,95.56c-4.07,0-6.22-2.23-6.22-6.44V77.54h3.19V88.63c0,3.27,1.21,3.91,3.3,3.91,1,0,3.38-.35,3.38-3.58V77.54h3.05V88.65C273.54,93,271.1,95.56,266.84,95.56Z"/><path class="cls-1" d="M261.48,89.12V78.39H263V88.63c0,3.33,1.21,4.76,4.15,4.76,2.21,0,4.23-1.28,4.23-4.43V78.39h1.35V88.65c0,4.38-2.51,6.06-5.85,6.06C263.26,94.71,261.48,92.92,261.48,89.12Z"/><path class="cls-1" d="M295.94,95.33l-2.56-6h-5.56l-2.6,6h-3.36l7.91-17.79h1.92l7.71,17.79Zm-3.86-9-1.44-3.4-1.46,3.4Z"/><path class="cls-1" d="M294,88.45h-6.69l-2.6,6h-1.49l7.15-16.09h.82l7,16.09h-1.6Zm-6.06-1.3h5.47l-2.71-6.42Z"/><polygon class="cls-1" points="308.96 95.33 308.96 77.54 312.15 77.54 312.15 92.33 319.4 92.33 319.4 95.33 308.96 95.33"/><path class="cls-1" d="M309.82,94.48V78.39h1.48v14.8h7.25v1.29Z"/><path class="cls-1" d="M348.47,95.56a16.86,16.86,0,0,1-4.21-.52l-.57-.2v-17l.69-.13a22.64,22.64,0,0,1,4.41-.45,8.37,8.37,0,0,1,8.72,8.77C357.51,91.75,353.88,95.56,348.47,95.56Zm-1.59-3.14a15,15,0,0,0,1.91.12c3.26,0,5.44-2.4,5.44-6,0-3-1.51-6.24-5.74-6.24a11.3,11.3,0,0,0-1.61.14Z"/><path class="cls-1" d="M344.54,94.24V78.59a22.6,22.6,0,0,1,4.25-.43c4.88,0,7.87,3.4,7.87,7.92,0,4.89-3,8.63-8.19,8.63A16.16,16.16,0,0,1,344.54,94.24ZM346,93.12a11.61,11.61,0,0,0,2.76.27c3.72,0,6.29-2.82,6.29-6.82,0-3.73-2.09-7.09-6.59-7.09a13.92,13.92,0,0,0-2.46.27Z"/><polygon class="cls-1" points="368.55 95.33 368.55 77.54 379.44 77.54 379.44 80.53 371.73 80.53 371.73 84.78 379.24 84.78 379.24 87.78 371.73 87.78 371.73 92.33 379.56 92.33 379.56 95.33 368.55 95.33"/><path class="cls-1" d="M370.88,85.63h7.5v1.3h-7.5v6.26h7.83v1.29H369.4V78.39h9.19v1.29h-7.71Z"/><path class="cls-1" d="M394.09,95.56a10.58,10.58,0,0,1-4.41-1l-.65-.33.92-3,.89.43a8.59,8.59,0,0,0,3.39.85c1.21,0,3.24-.28,3.24-2.16,0-1.17-1.58-2-3.25-2.88-2.23-1.18-4.76-2.51-4.76-5.31s2.42-4.92,6-4.92a9.91,9.91,0,0,1,4,.75l.66.29-.79,3-.9-.38a8.55,8.55,0,0,0-3.13-.65c-1.2,0-2.63.29-2.63,1.63,0,1.15,1.58,2,3.26,2.89,2.23,1.19,4.75,2.53,4.75,5.27C400.7,93.47,398.17,95.56,394.09,95.56Z"/><path class="cls-1" d="M390.47,92.49a9.31,9.31,0,0,0,3.76.94c2.16,0,4.09-.83,4.09-3,0-3.53-8-3.84-8-8.18,0-2.59,2.18-4.07,5.17-4.07a8.77,8.77,0,0,1,3.65.68l-.35,1.34a9.49,9.49,0,0,0-3.46-.72c-2,0-3.48.78-3.48,2.48,0,3.49,8,3.91,8,8.16,0,3.2-2.56,4.61-5.76,4.61a9.82,9.82,0,0,1-4-.88Z"/><rect class="cls-1" x="411.53" y="77.54" width="3.19" height="17.79"/><path class="cls-1" d="M413.86,94.48h-1.48V78.39h1.48Z"/><path class="cls-1" d="M435.14,95.56c-5.8,0-9.26-3.39-9.26-9.06a9.07,9.07,0,0,1,9.35-9.19,10.15,10.15,0,0,1,4,.76l.71.28-.83,3-.88-.35a7.82,7.82,0,0,0-3.21-.66,5.79,5.79,0,0,0-5.84,5.86c0,4.21,2.1,6.35,6.23,6.35a6.34,6.34,0,0,0,1.59-.2V87.8H433.5v-3h6.67v9.41l-.42.24A9.69,9.69,0,0,1,435.14,95.56Z"/><path class="cls-1" d="M439.32,93.72a8.83,8.83,0,0,1-4.18,1c-6.18,0-8.41-3.89-8.41-8.21a8.25,8.25,0,0,1,8.5-8.34,9.31,9.31,0,0,1,3.67.7l-.37,1.34a8.75,8.75,0,0,0-3.53-.72,6.67,6.67,0,0,0-6.69,6.71c0,4,1.83,7.2,7.08,7.2a5.72,5.72,0,0,0,2.44-.47V87h-3.48v-1.3h5Z"/><polygon class="cls-1" points="462.37 95.33 454.69 83.67 454.69 95.33 451.67 95.33 451.67 77.54 454.28 77.54 461.91 89.08 461.91 77.54 464.93 77.54 464.93 95.33 462.37 95.33"/><path class="cls-1" d="M453.84,80.83V94.48h-1.32V78.39h1.3l8.94,13.52V78.39h1.32V94.48h-1.25Z"/><polygon class="cls-1" points="476.92 95.33 476.92 77.54 487.81 77.54 487.81 80.53 480.1 80.53 480.1 84.78 487.6 84.78 487.6 87.78 480.1 87.78 480.1 92.33 487.93 92.33 487.93 95.33 476.92 95.33"/><path class="cls-1" d="M479.25,85.63h7.5v1.3h-7.5v6.26h7.83v1.29h-9.31V78.39H487v1.29h-7.71Z"/><path class="cls-1" d="M507.75,95.33l-1.62-4.87c-.71-2.2-1.28-2.61-3.58-2.61h-.7v7.48h-3.12V77.82l.72-.11a25.65,25.65,0,0,1,4.34-.4c3.77,0,6,1.79,6,4.79a5.37,5.37,0,0,1-2.21,4.26,6.08,6.08,0,0,1,1.31,2.47l2.16,6.5Zm-4.68-10.44c2.06,0,3.51-1.06,3.51-2.59s-1.68-2-3.1-2a12.39,12.39,0,0,0-1.63.12v4.46Z"/><path class="cls-1" d="M508.36,94.48l-1.42-4.29c-.81-2.5-1.67-3.19-4.39-3.19H501v7.48h-1.42V78.54a26.32,26.32,0,0,1,4.21-.38c3.11,0,5.17,1.32,5.17,3.94a4.33,4.33,0,0,1-3.25,4.18c1.3.29,1.86,1.18,2.39,2.81l1.79,5.39ZM501,85.74h2.06c2.77,0,4.37-1.58,4.37-3.44s-1.46-2.84-3.95-2.84a14,14,0,0,0-2.48.25Z"/><path class="cls-2" d="M59.51,120.73V119h2.34v1.71Z"/><path class="cls-2" d="M61.85,119.87H60.36v0Z"/><path class="cls-2" d="M0,123.7V0H123.7V123.7ZM119,119V108.28A32.25,32.25,0,0,1,108.28,119Zm-27.41,0a27.41,27.41,0,0,0,0-54.82H64.19V119Zm-53.34,0A62.12,62.12,0,0,1,4.68,85.43V119ZM59.52,4.72A57.53,57.53,0,0,0,4.68,61.85,57.54,57.54,0,0,0,59.51,119ZM108.27,64.2A32.31,32.31,0,0,1,119,75V64.2ZM119,59.52V48.75a32.22,32.22,0,0,1-10.76,10.77Zm-27.41,0a27.41,27.41,0,0,0,0-54.82H64.2V59.51ZM4.68,38.27A62.12,62.12,0,0,1,38.27,4.68H4.68ZM108.26,4.68A32.37,32.37,0,0,1,119,15.44V4.68Z"/><path class="cls-2" d="M.85.85v122h122V.85Zm62.5,3H91.61a28.26,28.26,0,1,1,0,56.52H63.35Zm-59.52,0H43A61.24,61.24,0,0,0,3.83,43Zm0,116V80.67A61.24,61.24,0,0,0,43,119.87Zm56.53,0v0a58,58,0,0,1,0-116v116l1.49,0Zm3,0V63.34H91.61a28.26,28.26,0,1,1,0,56.52Zm56.53,0h-15a31.39,31.39,0,0,0,15-15Zm0-41.54a31.34,31.34,0,0,0-15-15h15Zm0-18h-15a31.38,31.38,0,0,0,15-15Zm0-41.56a31.43,31.43,0,0,0-15-15h15Z"/><path class="cls-2" d="M59.51,120.73V119h2.34v1.71Z"/><path class="cls-2" d="M61.85,119.87H60.36v0Z"/></g></g></svg>