<svg xmlns="http://www.w3.org/2000/svg" xmlns:xlink="http://www.w3.org/1999/xlink" viewBox="0 0 419.09 348.65"><defs><style>.cls-1{fill:#202326;}.cls-2{fill:none;stroke:#d1be0a;stroke-miterlimit:10;stroke-width:2px;}.cls-3{fill:url(#Unbenannter_Verlauf_34);}</style><linearGradient id="Unbenannter_Verlauf_34" x1="88.12" y1="130.68" x2="343.6" y2="260.77" gradientUnits="userSpaceOnUse"><stop offset="0" stop-color="#d4aa93"/><stop offset="0.1" stop-color="#d8b19b"/><stop offset="0.25" stop-color="#e5c6b0"/><stop offset="0.44" stop-color="#f8e8d3"/><stop offset="0.49" stop-color="#fef1dd"/><stop offset="0.62" stop-color="#ecd3be"/><stop offset="0.76" stop-color="#dfbda6"/><stop offset="0.89" stop-color="#d7af98"/><stop offset="1" stop-color="#d4aa93"/></linearGradient></defs><g id="Logo_1" data-name="Logo 1"><rect class="cls-1" width="419.09" height="348.65"/><path class="cls-2" d="M217.87,282.89"/><path class="cls-3" d="M65.77,233.31l6.78,0c7.23,0,11.49,4.14,11.49,9.65s-4.26,9.57-11.49,9.57H65.77Zm6.78,16.5c5.72,0,8.4-2.83,8.4-6.87s-2.68-6.93-8.4-7H68.84v13.84Z"/><path class="cls-3" d="M89.08,242.91c0-5.55,4.58-10,10.68-10s10.71,4.41,10.71,10-4.58,10-10.71,10S89.08,248.45,89.08,242.91Zm18.31,0c0-4.09-3.32-7.19-7.63-7.19a7.28,7.28,0,0,0-7.62,7.19c0,4.07,3.32,7.17,7.62,7.17S107.39,247,107.39,242.92Z"/><path class="cls-3" d="M119.76,238.85v13.66h-3.07v-19.2h3.08l8,14.25,8.09-14.25h3v19.2h-3.07V238.88l-8,14.11Z"/><path class="cls-3" d="M146.2,233.31h3.09v19.2H146.2Z"/><path class="cls-3" d="M156.65,233.31h3.08l12.32,14.92V233.31h3.07v19.2h-3.06l-12.32-14.89v14.89h-3.09Z"/><path class="cls-3" d="M182.49,233.31h3.09v19.2h-3.09Z"/><path class="cls-3" d="M191.79,242.92c0-5.57,4.6-9.93,10.63-9.93a11.2,11.2,0,0,1,8.21,3.41l-2.37,1.79a8,8,0,0,0-5.85-2.41c-4.24,0-7.56,3-7.56,7.13s3.32,7.15,7.56,7.15a8,8,0,0,0,5.93-2.46l2.4,1.75a11.24,11.24,0,0,1-8.32,3.49C196.38,252.84,191.79,248.5,191.79,242.92Z"/><path class="cls-3" d="M226,233.31h9.43c4.18,0,6.51,1.68,6.51,4.82a3.92,3.92,0,0,1-2.83,4,4.78,4.78,0,0,1,3.83,5.05c0,3.59-2.27,5.36-6.53,5.36H226Zm9.44,7.61c2.14,0,3.46-.9,3.46-2.44,0-1.7-1.21-2.47-3.56-2.47H229v4.91Zm.87,8.88c2.34,0,3.6-1,3.61-3.11s-1.32-3.14-3.82-3.14H229v6.25Z"/><path class="cls-3" d="M261.64,252.51,252.09,244v8.47H249v-19.2h9.38c4.35,0,7.28,2.05,7.28,5.78s-2.68,5.69-7.05,5.69h-1.67l9.12,7.73Zm-9.55-10.31h6.52c2.31,0,3.89-1,3.89-3.11s-1.58-3.11-3.89-3.11h-6.52Z"/><path class="cls-3" d="M272,233.31H287.6V236H275v4.91h9.13v2.62H275v6.25h12.57v2.71H272Z"/><path class="cls-3" d="M291.41,242.92c0-5.57,4.6-9.93,10.63-9.93a11.2,11.2,0,0,1,8.21,3.41l-2.36,1.79a8.06,8.06,0,0,0-5.85-2.41c-4.25,0-7.57,3-7.57,7.13s3.32,7.15,7.57,7.15A8,8,0,0,0,308,247.6l2.4,1.75a11.24,11.24,0,0,1-8.32,3.49C296,252.84,291.41,248.5,291.41,242.92Z"/><path class="cls-3" d="M315.93,233.31H319v7.63h11.63v-7.63h3.09v19.2h-3.09l0-8.88H319v8.88h-3.09Z"/><path class="cls-3" d="M345.91,236h-7v-2.71h17V236h-7v16.49h-3Z"/><path class="cls-3" d="M65.51,268.63h1.4l6,11.3,5.92-11.3h1.36l-7.27,13.62Z"/><path class="cls-3" d="M92.58,268.63h1.26v13.12H92.58Z"/><path class="cls-3" d="M113.57,281.88a12.58,12.58,0,0,1-6.27-1.57l.68-.92a11.51,11.51,0,0,0,5.64,1.41c2.4,0,4.1-.92,4.11-2.48,0-1.41-1-1.94-3.47-2.48l-2-.43c-2.84-.63-4.35-1.63-4.36-3.51,0-2.08,2.17-3.37,5.24-3.4a10.48,10.48,0,0,1,5.34,1.4l-.65.93a8.82,8.82,0,0,0-4.59-1.25c-2.39,0-4,.86-4,2.35,0,1.29,1.14,1.93,3.42,2.43l2,.45c2.93.64,4.29,1.58,4.3,3.49,0,2.19-2.24,3.56-5.44,3.58Z"/><path class="cls-3" d="M132.28,275.57v-6.94h1.27v6.94c0,3.38,1.63,5.21,5,5.21s5-1.83,5-5.21v-6.94h1.28v6.94c0,4-2.12,6.32-6.28,6.32S132.28,279.56,132.28,275.57Z"/><path class="cls-3" d="M164.17,268.15l7.65,13.62h-1.36l-1.81-3.29h-9l-1.86,3.29h-1.39Zm3.92,9.33-3.93-7.07-4,7.07Z"/><path class="cls-3" d="M184.22,268.63h1.25v12h8.63v1.09h-9.87Z"/><path class="cls-3" d="M223.27,268.63H228c5.06,0,7.87,2.89,7.87,6.59s-2.81,6.54-7.87,6.54h-4.72Zm4.71,12c4.46,0,6.63-2.37,6.63-5.46s-2.17-5.49-6.63-5.51h-3.47v11Z"/><path class="cls-3" d="M249.58,268.63h10.74v1.07h-9.49v4.41h7.08v1.06h-7.08v5.48h9.5v1.09H249.58Z"/><path class="cls-3" d="M278.68,281.88a12.62,12.62,0,0,1-6.28-1.57l.68-.92a11.55,11.55,0,0,0,5.65,1.41c2.4,0,4.1-.92,4.1-2.48,0-1.41-1-1.94-3.47-2.48l-1.94-.43c-2.85-.63-4.35-1.63-4.37-3.51,0-2.08,2.17-3.37,5.24-3.4a10.51,10.51,0,0,1,5.35,1.4l-.65.93a8.87,8.87,0,0,0-4.59-1.25c-2.39,0-4,.86-4,2.35,0,1.29,1.13,1.93,3.41,2.43l2,.45c2.93.64,4.29,1.58,4.31,3.49,0,2.19-2.24,3.56-5.44,3.58Z"/><path class="cls-3" d="M297.65,268.63h1.25v13.12h-1.25Z"/><path class="cls-3" d="M312.62,275.21c0-3.75,3.08-6.8,7.36-6.8a8,8,0,0,1,5.71,2.2l-.95.73a6.69,6.69,0,0,0-4.76-1.82,5.8,5.8,0,0,0-6.12,5.69c0,3.13,2.63,5.65,6.17,5.65a6.85,6.85,0,0,0,5-2.19v-3.6h1.25v4A8.15,8.15,0,0,1,320,282C315.76,282,312.62,278.93,312.62,275.21Z"/><path class="cls-3" d="M340.28,268.64h1.27l10.09,11.46V268.63h1.24v13.12h-1.27L341.53,270.3v11.45h-1.25Z"/><path class="cls-3" d="M149.54,64.76v122h122v-122Zm120,20.07a31.16,31.16,0,0,0-18.08-18.07h18.08Zm-60,99.9a59,59,0,0,1,0-117.95Zm2-118h29a29,29,0,0,1,0,58h-29Zm58,78.08a31.18,31.18,0,0,0-18.08-18.08h18.08Zm0-20.08H251.45a31.18,31.18,0,0,0,18.09-18.07Zm-118-58H195a61.22,61.22,0,0,0-43.5,43.5Zm0,118V141.25A61.21,61.21,0,0,0,195,184.76Zm60,0v-58h29a29,29,0,0,1,0,58Zm39.94,0a31.21,31.21,0,0,0,18.06-18.07v18.07Z"/><path class="cls-3" d="M149.54,64.76v122h122v-122Zm120,20.07a31.16,31.16,0,0,0-18.08-18.07h18.08Zm-60,99.9a59,59,0,0,1,0-117.95Zm2-118h29a29,29,0,0,1,0,58h-29Zm58,78.08a31.18,31.18,0,0,0-18.08-18.08h18.08Zm0-20.08H251.45a31.18,31.18,0,0,0,18.09-18.07Zm-118-58H195a61.22,61.22,0,0,0-43.5,43.5Zm0,118V141.25A61.21,61.21,0,0,0,195,184.76Zm60,0v-58h29a29,29,0,0,1,0,58Zm39.94,0a31.21,31.21,0,0,0,18.06-18.07v18.07Z"/></g></svg>