<svg xmlns="http://www.w3.org/2000/svg" xmlns:xlink="http://www.w3.org/1999/xlink" viewBox="0 0 290.42 217.49"><defs><style>.cls-1{fill:url(#Unbenannter_Verlauf_29);}</style><linearGradient id="Unbenannter_Verlauf_29" x1="-6.86" y1="54.13" x2="319.45" y2="207.47" gradientUnits="userSpaceOnUse"><stop offset="0" stop-color="#bee2f8"/><stop offset="0.2" stop-color="#cae7f9"/><stop offset="0.57" stop-color="#ebf6fd"/><stop offset="0.62" stop-color="#f0f8fd"/><stop offset="0.65" stop-color="#e8f4fc"/><stop offset="0.78" stop-color="#d1eafa"/><stop offset="0.9" stop-color="#c3e4f8"/><stop offset="1" stop-color="#bee2f8"/></linearGradient></defs><g id="Ebene_2" data-name="Ebene 2"><g id="Ebene_1-2" data-name="Ebene 1"><path class="cls-1" d="M2.9,168.55l6.79,0c7.22,0,11.48,4.14,11.48,9.65s-4.26,9.57-11.48,9.57H2.9Zm6.78,16.5c5.72,0,8.41-2.83,8.41-6.86s-2.69-6.94-8.41-7l-3.71,0v13.85Z" transform="translate(-2.64)"/><path class="cls-1" d="M26.21,178.16c0-5.56,4.58-10,10.69-10s10.7,4.4,10.7,10-4.58,10-10.7,10S26.21,183.69,26.21,178.16Zm18.31,0c0-4.09-3.32-7.19-7.63-7.19a7.19,7.19,0,1,0,0,14.36C41.2,185.33,44.52,182.23,44.52,178.16Z" transform="translate(-2.64)"/><path class="cls-1" d="M56.89,174.09v13.66H53.82v-19.2H56.9l8,14.26L73,168.55h3v19.2H72.91V174.12l-8,14.11Z" transform="translate(-2.64)"/><path class="cls-1" d="M83.33,168.55h3.09v19.2H83.33Z" transform="translate(-2.64)"/><path class="cls-1" d="M93.79,168.55h3.07l12.32,14.92V168.55h3.07v19.2h-3.06L96.88,172.86v14.89H93.79Z" transform="translate(-2.64)"/><path class="cls-1" d="M119.62,168.55h3.09v19.2h-3.09Z" transform="translate(-2.64)"/><path class="cls-1" d="M128.92,178.16c0-5.57,4.6-9.92,10.63-9.92a11.19,11.19,0,0,1,8.21,3.4l-2.36,1.8a8,8,0,0,0-5.85-2.42c-4.25,0-7.57,3-7.57,7.13s3.32,7.15,7.57,7.15a8,8,0,0,0,5.92-2.46l2.4,1.75a11.21,11.21,0,0,1-8.32,3.49C133.51,188.08,128.92,183.74,128.92,178.16Z" transform="translate(-2.64)"/><path class="cls-1" d="M163.11,168.55h9.43c4.18,0,6.51,1.68,6.51,4.82a3.92,3.92,0,0,1-2.83,4,4.78,4.78,0,0,1,3.83,5.06c0,3.58-2.27,5.35-6.53,5.35H163.11Zm9.45,7.61c2.13,0,3.45-.89,3.45-2.44s-1.21-2.47-3.55-2.47H166.1v4.91Zm.86,8.88c2.34,0,3.61-1,3.61-3.11s-1.32-3.14-3.81-3.14H166.1V185Z" transform="translate(-2.64)"/><path class="cls-1" d="M198.78,187.75l-9.55-8.47v8.47h-3.09v-19.2h9.37c4.36,0,7.28,2,7.28,5.78s-2.67,5.69-7,5.69h-1.67l9.13,7.73Zm-9.55-10.3h6.52c2.3,0,3.88-1,3.88-3.12s-1.58-3.11-3.88-3.11h-6.52Z" transform="translate(-2.64)"/><path class="cls-1" d="M209.1,168.55h15.63v2.7H212.17v4.91h9.13v2.62h-9.13V185h12.58v2.71H209.1Z" transform="translate(-2.64)"/><path class="cls-1" d="M228.54,178.16c0-5.57,4.6-9.92,10.63-9.92a11.19,11.19,0,0,1,8.21,3.4l-2.36,1.8a8,8,0,0,0-5.85-2.42c-4.25,0-7.57,3-7.57,7.13s3.32,7.15,7.57,7.15a8,8,0,0,0,5.92-2.46l2.4,1.75a11.21,11.21,0,0,1-8.32,3.49C233.13,188.08,228.54,183.74,228.54,178.16Z" transform="translate(-2.64)"/><path class="cls-1" d="M253.06,168.55h3.09v7.63h11.63v-7.63h3.09v19.2h-3.09l0-8.88h-11.6v8.88h-3.09Z" transform="translate(-2.64)"/><path class="cls-1" d="M283,171.26h-7v-2.71h17v2.71h-7v16.49h-3Z" transform="translate(-2.64)"/><path class="cls-1" d="M2.64,203.87H4l6,11.3L16,203.87h1.35L10,217.49Z" transform="translate(-2.64)"/><path class="cls-1" d="M29.72,203.87H31V217H29.72Z" transform="translate(-2.64)"/><path class="cls-1" d="M44.43,215.55l.68-.92A11.51,11.51,0,0,0,50.75,216c2.41,0,4.11-.92,4.11-2.48,0-1.41-1-1.94-3.47-2.48l-1.94-.43c-2.85-.63-4.35-1.63-4.37-3.51,0-2.08,2.17-3.37,5.24-3.4a10.64,10.64,0,0,1,5.35,1.4l-.65.93a8.87,8.87,0,0,0-4.59-1.25c-2.4,0-4,.86-4,2.35,0,1.29,1.14,1.93,3.42,2.44l2,.44c2.93.64,4.29,1.58,4.31,3.49,0,2.19-2.25,3.56-5.44,3.58A12.49,12.49,0,0,1,44.43,215.55Z" transform="translate(-2.64)"/><path class="cls-1" d="M69.42,210.81v-6.94h1.26v6.94c0,3.38,1.63,5.21,5,5.21s5-1.83,5-5.21v-6.94H82v6.94c0,4-2.12,6.32-6.28,6.32S69.42,214.8,69.42,210.81Z" transform="translate(-2.64)"/><path class="cls-1" d="M101.3,203.39,109,217h-1.36l-1.81-3.29h-9L94.9,217H93.51Zm3.92,9.33-3.93-7.07-4,7.07Z" transform="translate(-2.64)"/><path class="cls-1" d="M121.35,203.87h1.25v12h8.62V217h-9.87Z" transform="translate(-2.64)"/><path class="cls-1" d="M160.4,203.87h4.72c5.07,0,7.87,2.89,7.87,6.59s-2.8,6.54-7.87,6.54H160.4Zm4.72,12c4.45,0,6.62-2.37,6.62-5.46s-2.17-5.49-6.62-5.5h-3.48v11Z" transform="translate(-2.64)"/><path class="cls-1" d="M186.71,203.87h10.74v1.07H188v4.42H195v1.06H188v5.48h9.5V217H186.71Z" transform="translate(-2.64)"/><path class="cls-1" d="M209.53,215.55l.68-.92a11.55,11.55,0,0,0,5.65,1.41c2.4,0,4.1-.92,4.1-2.48,0-1.41-1-1.94-3.46-2.48l-1.95-.43c-2.85-.63-4.35-1.63-4.37-3.51,0-2.08,2.17-3.37,5.25-3.4a10.6,10.6,0,0,1,5.34,1.4l-.65.93a8.85,8.85,0,0,0-4.59-1.25c-2.39,0-4,.86-4,2.35,0,1.29,1.14,1.93,3.41,2.44l2,.44c2.93.64,4.28,1.58,4.3,3.49,0,2.19-2.24,3.56-5.44,3.58A12.52,12.52,0,0,1,209.53,215.55Z" transform="translate(-2.64)"/><path class="cls-1" d="M234.78,203.87H236V217h-1.25Z" transform="translate(-2.64)"/><path class="cls-1" d="M249.75,210.45c0-3.75,3.09-6.8,7.36-6.8a8,8,0,0,1,5.72,2.2l-1,.73a6.67,6.67,0,0,0-4.76-1.82,5.79,5.79,0,0,0-6.11,5.69c0,3.13,2.62,5.65,6.17,5.65a6.84,6.84,0,0,0,5-2.19v-3.6h1.26v4a8.18,8.18,0,0,1-6.29,2.91C252.89,217.21,249.75,214.17,249.75,210.45Z" transform="translate(-2.64)"/><path class="cls-1" d="M277.41,203.88h1.27l10.09,11.47V203.87H290V217h-1.28l-10.07-11.44V217h-1.26Z" transform="translate(-2.64)"/><path class="cls-1" d="M86.67,0V122h122V0Zm120,20.07A31.16,31.16,0,0,0,188.59,2h18.08Zm-60,99.9A59,59,0,0,1,146.68,2Zm2-118h29a29,29,0,1,1,0,58h-29Zm58,78.08A31.2,31.2,0,0,0,188.59,62h18.08Zm0-20.07H188.59a31.19,31.19,0,0,0,18.08-18.07ZM88.67,2h43.5a61.21,61.21,0,0,0-43.5,43.51Zm0,118V76.49A61.21,61.21,0,0,0,132.17,120Zm60,0V62h29a29,29,0,0,1,0,58Zm39.94,0a31.18,31.18,0,0,0,18.06-18.07V120Z" transform="translate(-2.64)"/><path class="cls-1" d="M86.67,0V122h122V0Zm120,20.07A31.16,31.16,0,0,0,188.59,2h18.08Zm-60,99.9A59,59,0,0,1,146.68,2Zm2-118h29a29,29,0,1,1,0,58h-29Zm58,78.08A31.2,31.2,0,0,0,188.59,62h18.08Zm0-20.07H188.59a31.19,31.19,0,0,0,18.08-18.07ZM88.67,2h43.5a61.21,61.21,0,0,0-43.5,43.51Zm0,118V76.49A61.21,61.21,0,0,0,132.17,120Zm60,0V62h29a29,29,0,0,1,0,58Zm39.94,0a31.18,31.18,0,0,0,18.06-18.07V120Z" transform="translate(-2.64)"/></g></g></svg>