<svg xmlns="http://www.w3.org/2000/svg" xmlns:xlink="http://www.w3.org/1999/xlink" viewBox="0 0 643.46 122"><defs><style>.cls-1{fill:url(#Unbenannter_Verlauf_9);}</style><linearGradient id="Unbenannter_Verlauf_9" x1="-8.86" y1="-89.71" x2="695.81" y2="256.76" gradientUnits="userSpaceOnUse"><stop offset="0" stop-color="#bee2f8"/><stop offset="0.2" stop-color="#cae7f9"/><stop offset="0.57" stop-color="#ebf6fd"/><stop offset="0.62" stop-color="#f0f8fd"/><stop offset="0.65" stop-color="#e8f4fc"/><stop offset="0.78" stop-color="#d1eafa"/><stop offset="0.9" stop-color="#c3e4f8"/><stop offset="1" stop-color="#bee2f8"/></linearGradient></defs><g id="Ebene_2" data-name="Ebene 2"><g id="Ebene_1-2" data-name="Ebene 1"><path class="cls-1" d="M198,23.67l10.42,0c11.09,0,17.62,6.37,17.62,14.82s-6.53,14.69-17.62,14.69H198ZM208.42,49c8.79,0,12.91-4.35,12.91-10.54s-4.12-10.64-12.91-10.69l-5.68,0V49Z"/><path class="cls-1" d="M233.8,38.41c0-8.53,7-15.29,16.41-15.29s16.43,6.76,16.43,15.29-7,15.29-16.43,15.29S233.8,46.91,233.8,38.41Zm28.11,0c0-6.28-5.1-11-11.72-11s-11.68,4.76-11.68,11,5.09,11,11.68,11S261.91,44.67,261.91,38.42Z"/><path class="cls-1" d="M280.91,32.18v21h-4.72V23.67h4.73l12.27,21.88,12.42-21.88h4.6V53.14H305.5V32.22L293.24,53.88Z"/><path class="cls-1" d="M321.5,23.67h4.74V53.14H321.5Z"/><path class="cls-1" d="M337.55,23.67h4.72l18.91,22.9V23.67h4.71V53.14h-4.7l-18.9-22.85V53.14h-4.74Z"/><path class="cls-1" d="M377.2,23.67H382V53.14H377.2Z"/><path class="cls-1" d="M391.48,38.41c0-8.54,7.06-15.23,16.33-15.23a17.23,17.23,0,0,1,12.6,5.23l-3.64,2.76a12.3,12.3,0,0,0-9-3.71c-6.51,0-11.6,4.64-11.6,10.95s5.09,11,11.6,11a12.32,12.32,0,0,0,9.1-3.78l3.68,2.68a17.22,17.22,0,0,1-12.76,5.35C398.53,53.64,391.48,47,391.48,38.41Z"/><path class="cls-1" d="M444,23.67h14.47c6.42,0,10,2.58,10,7.39a6,6,0,0,1-4.35,6.11c3,.66,5.88,3,5.88,7.75,0,5.5-3.48,8.22-10,8.22H444Zm14.5,11.69c3.27,0,5.3-1.38,5.3-3.76,0-2.6-1.85-3.79-5.45-3.79h-9.76v7.55ZM459.79,49c3.6,0,5.54-1.56,5.54-4.77s-2-4.82-5.85-4.82H448.56V49Z"/><path class="cls-1" d="M498.72,53.14l-14.66-13v13h-4.74V23.67H493.7c6.7,0,11.18,3.15,11.18,8.88s-4.1,8.72-10.82,8.72H491.5l14,11.87ZM484.06,37.32h10c3.53,0,6-1.51,6-4.77s-2.43-4.78-6-4.78h-10Z"/><path class="cls-1" d="M514.57,23.67h24v4.14H519.29v7.54l14,0v4h-14V49h19.3v4.16h-24Z"/><path class="cls-1" d="M544.41,38.41c0-8.54,7.07-15.23,16.33-15.23a17.22,17.22,0,0,1,12.6,5.23l-3.63,2.76a12.3,12.3,0,0,0-9-3.71c-6.51,0-11.61,4.64-11.61,10.95s5.1,11,11.61,11a12.3,12.3,0,0,0,9.09-3.78l3.68,2.68a17.18,17.18,0,0,1-12.76,5.35C551.46,53.64,544.41,47,544.41,38.41Z"/><path class="cls-1" d="M582.06,23.67h4.74v11.7h17.86V23.67h4.74V53.14h-4.74l0-13.64H586.8V53.14h-4.74Z"/><path class="cls-1" d="M628.09,27.83H617.38l0-4.16h26.11v4.16H632.77V53.14h-4.68Z"/><path class="cls-1" d="M197.62,77.88h2.15L209,95.24l9.1-17.36h2.08L209,98.8Z"/><path class="cls-1" d="M239.18,77.88h1.93V98h-1.93Z"/><path class="cls-1" d="M271.41,98.23a19.37,19.37,0,0,1-9.64-2.41l1.05-1.42a17.53,17.53,0,0,0,8.66,2.17c3.69,0,6.3-1.41,6.3-3.81,0-2.16-1.58-3-5.32-3.81l-3-.66c-4.37-1-6.67-2.51-6.7-5.39,0-3.19,3.33-5.17,8.05-5.22a16.11,16.11,0,0,1,8.2,2.15l-1,1.42a13.48,13.48,0,0,0-7-1.91c-3.67.06-6.21,1.31-6.18,3.61,0,2,1.75,3,5.25,3.74l3.1.68c4.5,1,6.58,2.42,6.61,5.37,0,3.35-3.44,5.46-8.35,5.49Z"/><path class="cls-1" d="M300.13,88.53V77.88h1.95V88.53c0,5.2,2.5,8,7.67,8s7.67-2.81,7.67-8V77.88h2V88.54c0,6.1-3.25,9.7-9.64,9.7S300.13,94.67,300.13,88.53Z"/><path class="cls-1" d="M349.08,77.14l11.75,20.92h-2.09L356,93H342.12l-2.86,5h-2.13Zm6,14.33-6-10.86L343,91.47Z"/><path class="cls-1" d="M379.86,77.88h1.92V96.36H395V98H379.86Z"/><path class="cls-1" d="M439.81,77.88h7.24c7.78,0,12.09,4.43,12.09,10.11s-4.31,10-12.09,10h-7.24Zm7.24,18.5c6.84,0,10.17-3.64,10.17-8.39s-3.33-8.45-10.17-8.46h-5.33V96.38Z"/><path class="cls-1" d="M480.2,77.88h16.49v1.65H482.12V86.3H493v1.62H482.12v8.42H496.7V98H480.2Z"/><path class="cls-1" d="M524.87,98.23a19.36,19.36,0,0,1-9.63-2.41l1-1.42A17.6,17.6,0,0,0,525,96.57c3.68,0,6.29-1.41,6.3-3.81,0-2.16-1.59-3-5.32-3.81l-3-.66c-4.37-1-6.68-2.51-6.7-5.39,0-3.19,3.33-5.17,8-5.22a16.15,16.15,0,0,1,8.21,2.15l-1,1.42a13.52,13.52,0,0,0-7-1.91c-3.67.06-6.2,1.31-6.17,3.61,0,2,1.75,3,5.24,3.74l3.11.68c4.5,1,6.58,2.42,6.6,5.37,0,3.35-3.44,5.46-8.35,5.49Z"/><path class="cls-1" d="M554,77.88h1.92V98H554Z"/><path class="cls-1" d="M577,88c0-5.76,4.74-10.44,11.3-10.44a12.33,12.33,0,0,1,8.77,3.38L595.59,82a10.29,10.29,0,0,0-7.31-2.79c-5.45,0-9.39,3.88-9.39,8.73s4,8.69,9.47,8.69a10.53,10.53,0,0,0,7.74-3.38V87.77H598V93.9a12.52,12.52,0,0,1-9.65,4.47C581.8,98.37,577,93.7,577,88Z"/><path class="cls-1" d="M619.45,77.88h1.94L636.88,95.5V77.88h1.91V98h-1.95L621.37,80.45V98h-1.92Z"/><path class="cls-1" d="M0,0V122H122V0ZM120,20.07A31.14,31.14,0,0,0,101.93,2H120ZM60,120A59,59,0,0,1,60,2ZM62,2H91a29,29,0,0,1,0,58H62Zm58,78.08A31.15,31.15,0,0,0,101.92,62H120ZM120,60H101.92A31.13,31.13,0,0,0,120,41.93ZM2,2H45.51A61.21,61.21,0,0,0,2,45.51ZM2,120V76.49A61.21,61.21,0,0,0,45.51,120Zm60,0V62H91a29,29,0,0,1,0,58Zm39.94,0A31.15,31.15,0,0,0,120,101.93V120Z"/><path class="cls-1" d="M0,0V122H122V0ZM120,20.07A31.14,31.14,0,0,0,101.93,2H120ZM60,120A59,59,0,0,1,60,2ZM62,2H91a29,29,0,0,1,0,58H62Zm58,78.08A31.15,31.15,0,0,0,101.92,62H120ZM120,60H101.92A31.13,31.13,0,0,0,120,41.93ZM2,2H45.51A61.21,61.21,0,0,0,2,45.51ZM2,120V76.49A61.21,61.21,0,0,0,45.51,120Zm60,0V62H91a29,29,0,0,1,0,58Zm39.94,0A31.15,31.15,0,0,0,120,101.93V120Z"/></g></g></svg>